# Blender 4.2.23 LTS
# www.blender.org
o demo_charge
v -0.081000 0.000000 0.043500
v -0.081000 0.004000 0.047500
v -0.085000 0.004000 0.043500
v -0.081000 0.001172 0.046328
v -0.083309 0.001691 0.045809
v -0.083828 0.004000 0.046328
v -0.083828 0.001172 0.043500
v -0.081000 0.034000 0.047500
v -0.081000 0.038000 0.043500
v -0.085000 0.034000 0.043500
v -0.081000 0.036828 0.046328
v -0.083309 0.036309 0.045809
v -0.083828 0.036828 0.043500
v -0.083828 0.034000 0.046328
v -0.081000 0.000000 -0.043500
v -0.085000 0.004000 -0.043500
v -0.081000 0.004000 -0.047500
v -0.083828 0.001172 -0.043500
v -0.083309 0.001691 -0.045809
v -0.083828 0.004000 -0.046328
v -0.081000 0.001172 -0.046328
v -0.081000 0.038000 -0.043500
v -0.081000 0.034000 -0.047500
v -0.085000 0.034000 -0.043500
v -0.081000 0.036828 -0.046328
v -0.083309 0.036309 -0.045809
v -0.083828 0.034000 -0.046328
v -0.083828 0.036828 -0.043500
v 0.081000 0.000000 0.043500
v 0.085000 0.004000 0.043500
v 0.081000 0.004000 0.047500
v 0.083828 0.001172 0.043500
v 0.083309 0.001691 0.045809
v 0.083828 0.004000 0.046328
v 0.081000 0.001172 0.046328
v 0.081000 0.038000 0.043500
v 0.081000 0.034000 0.047500
v 0.085000 0.034000 0.043500
v 0.081000 0.036828 0.046328
v 0.083309 0.036309 0.045809
v 0.083828 0.034000 0.046328
v 0.083828 0.036828 0.043500
v 0.081000 0.000000 -0.043500
v 0.081000 0.004000 -0.047500
v 0.085000 0.004000 -0.043500
v 0.081000 0.001172 -0.046328
v 0.083309 0.001691 -0.045809
v 0.083828 0.004000 -0.046328
v 0.083828 0.001172 -0.043500
v 0.081000 0.038000 -0.043500
v 0.085000 0.034000 -0.043500
v 0.081000 0.034000 -0.047500
v 0.083828 0.036828 -0.043500
v 0.083309 0.036309 -0.045809
v 0.083828 0.034000 -0.046328
v 0.081000 0.036828 -0.046328
v -0.064000 -0.002000 0.049500
v -0.064000 0.040000 0.049500
v -0.064000 -0.002000 -0.049500
v -0.064000 0.040000 -0.049500
v -0.036000 -0.002000 0.049500
v -0.036000 0.040000 0.049500
v -0.036000 -0.002000 -0.049500
v -0.036000 0.040000 -0.049500
v 0.036000 -0.002000 0.049500
v 0.036000 0.040000 0.049500
v 0.036000 -0.002000 -0.049500
v 0.036000 0.040000 -0.049500
v 0.064000 -0.002000 0.049500
v 0.064000 0.040000 0.049500
v 0.064000 -0.002000 -0.049500
v 0.064000 0.040000 -0.049500
v -0.022000 0.040000 0.014000
v -0.022000 0.043000 0.017000
v -0.025000 0.043000 0.014000
v -0.022000 0.040879 0.016121
v -0.023732 0.041268 0.015732
v -0.024121 0.043000 0.016121
v -0.024121 0.040879 0.014000
v -0.022000 0.057000 0.017000
v -0.022000 0.060000 0.014000
v -0.025000 0.057000 0.014000
v -0.022000 0.059121 0.016121
v -0.023732 0.058732 0.015732
v -0.024121 0.059121 0.014000
v -0.024121 0.057000 0.016121
v -0.022000 0.040000 -0.014000
v -0.025000 0.043000 -0.014000
v -0.022000 0.043000 -0.017000
v -0.024121 0.040879 -0.014000
v -0.023732 0.041268 -0.015732
v -0.024121 0.043000 -0.016121
v -0.022000 0.040879 -0.016121
v -0.022000 0.060000 -0.014000
v -0.022000 0.057000 -0.017000
v -0.025000 0.057000 -0.014000
v -0.022000 0.059121 -0.016121
v -0.023732 0.058732 -0.015732
v -0.024121 0.057000 -0.016121
v -0.024121 0.059121 -0.014000
v 0.022000 0.040000 0.014000
v 0.025000 0.043000 0.014000
v 0.022000 0.043000 0.017000
v 0.024121 0.040879 0.014000
v 0.023732 0.041268 0.015732
v 0.024121 0.043000 0.016121
v 0.022000 0.040879 0.016121
v 0.022000 0.060000 0.014000
v 0.022000 0.057000 0.017000
v 0.025000 0.057000 0.014000
v 0.022000 0.059121 0.016121
v 0.023732 0.058732 0.015732
v 0.024121 0.057000 0.016121
v 0.024121 0.059121 0.014000
v 0.022000 0.040000 -0.014000
v 0.022000 0.043000 -0.017000
v 0.025000 0.043000 -0.014000
v 0.022000 0.040879 -0.016121
v 0.023732 0.041268 -0.015732
v 0.024121 0.043000 -0.016121
v 0.024121 0.040879 -0.014000
v 0.022000 0.060000 -0.014000
v 0.025000 0.057000 -0.014000
v 0.022000 0.057000 -0.017000
v 0.024121 0.059121 -0.014000
v 0.023732 0.058732 -0.015732
v 0.024121 0.057000 -0.016121
v 0.022000 0.059121 -0.016121
v 0.018000 0.060000 -0.001400
v 0.018000 0.135000 -0.001400
v 0.018990 0.060000 -0.000990
v 0.018990 0.135000 -0.000990
v 0.019400 0.060000 0.000000
v 0.019400 0.135000 0.000000
v 0.018990 0.060000 0.000990
v 0.018990 0.135000 0.000990
v 0.018000 0.060000 0.001400
v 0.018000 0.135000 0.001400
v 0.017010 0.060000 0.000990
v 0.017010 0.135000 0.000990
v 0.016600 0.060000 0.000000
v 0.016600 0.135000 0.000000
v 0.017010 0.060000 -0.000990
v 0.017010 0.135000 -0.000990
v 0.018000 0.133000 -0.002600
v 0.018000 0.137000 -0.002600
v 0.019528 0.133000 -0.002103
v 0.019528 0.137000 -0.002103
v 0.020473 0.133000 -0.000803
v 0.020473 0.137000 -0.000803
v 0.020473 0.133000 0.000803
v 0.020473 0.137000 0.000803
v 0.019528 0.133000 0.002103
v 0.019528 0.137000 0.002103
v 0.018000 0.133000 0.002600
v 0.018000 0.137000 0.002600
v 0.016472 0.133000 0.002103
v 0.016472 0.137000 0.002103
v 0.015527 0.133000 0.000803
v 0.015527 0.137000 0.000803
v 0.015527 0.133000 -0.000803
v 0.015527 0.137000 -0.000803
v 0.016472 0.133000 -0.002103
v 0.016472 0.137000 -0.002103
v -0.014000 0.064234 0.010661
v -0.014000 0.061000 0.008500
v -0.013330 0.064234 0.010840
v -0.012763 0.063475 0.009857
v -0.012383 0.062339 0.009200
v -0.012250 0.061000 0.008969
v -0.012383 0.059661 0.009200
v -0.012763 0.058525 0.009857
v -0.013330 0.057766 0.010840
v -0.012840 0.064234 0.011330
v -0.011857 0.063475 0.010763
v -0.011200 0.062339 0.010383
v -0.010969 0.061000 0.010250
v -0.011200 0.059661 0.010383
v -0.011857 0.058525 0.010763
v -0.012840 0.057766 0.011330
v -0.012661 0.064234 0.012000
v -0.011525 0.063475 0.012000
v -0.010766 0.062339 0.012000
v -0.010500 0.061000 0.012000
v -0.010766 0.059661 0.012000
v -0.011525 0.058525 0.012000
v -0.012661 0.057766 0.012000
v -0.012840 0.064234 0.012670
v -0.011857 0.063475 0.013237
v -0.011200 0.062339 0.013617
v -0.010969 0.061000 0.013750
v -0.011200 0.059661 0.013617
v -0.011857 0.058525 0.013237
v -0.012840 0.057766 0.012670
v -0.013330 0.064234 0.013160
v -0.012763 0.063475 0.014143
v -0.012383 0.062339 0.014800
v -0.012250 0.061000 0.015031
v -0.012383 0.059661 0.014800
v -0.012763 0.058525 0.014143
v -0.013330 0.057766 0.013160
v -0.014000 0.064234 0.013339
v -0.014000 0.063475 0.014475
v -0.014000 0.062339 0.015234
v -0.014000 0.061000 0.015500
v -0.014000 0.059661 0.015234
v -0.014000 0.058525 0.014475
v -0.014000 0.057766 0.013339
v -0.014670 0.064234 0.013160
v -0.015237 0.063475 0.014143
v -0.015617 0.062339 0.014800
v -0.015750 0.061000 0.015031
v -0.015617 0.059661 0.014800
v -0.015237 0.058525 0.014143
v -0.014670 0.057766 0.013160
v -0.014000 0.057500 0.012000
v -0.014000 0.064500 0.012000
v -0.015160 0.064234 0.012670
v -0.016143 0.063475 0.013237
v -0.016800 0.062339 0.013617
v -0.017031 0.061000 0.013750
v -0.016800 0.059661 0.013617
v -0.016143 0.058525 0.013237
v -0.015160 0.057766 0.012670
v -0.015339 0.064234 0.012000
v -0.016475 0.063475 0.012000
v -0.017234 0.062339 0.012000
v -0.017500 0.061000 0.012000
v -0.017234 0.059661 0.012000
v -0.016475 0.058525 0.012000
v -0.015339 0.057766 0.012000
v -0.015160 0.064234 0.011330
v -0.016143 0.063475 0.010763
v -0.016800 0.062339 0.010383
v -0.017031 0.061000 0.010250
v -0.016800 0.059661 0.010383
v -0.016143 0.058525 0.010763
v -0.015160 0.057766 0.011330
v -0.014670 0.064234 0.010840
v -0.015237 0.063475 0.009857
v -0.015617 0.062339 0.009200
v -0.015750 0.061000 0.008969
v -0.015617 0.059661 0.009200
v -0.015237 0.058525 0.009857
v -0.014670 0.057766 0.010840
v -0.014000 0.063475 0.009525
v -0.014000 0.062339 0.008766
v -0.014000 0.059661 0.008766
v -0.014000 0.058525 0.009525
v -0.014000 0.057766 0.010661
v -0.071140 0.034975 -0.035445
v -0.070511 0.035470 -0.036371
v -0.069582 0.035104 -0.037080
v -0.068898 0.034091 -0.037156
v -0.068860 0.033025 -0.036555
v -0.069489 0.032530 -0.035629
v -0.070418 0.032896 -0.034920
v -0.071102 0.033909 -0.034844
v -0.024708 0.049093 -0.004869
v -0.024588 0.049546 -0.006000
v -0.024708 0.049093 -0.007131
v -0.025000 0.048000 -0.007600
v -0.025292 0.046907 -0.007131
v -0.025412 0.046454 -0.006000
v -0.025292 0.046907 -0.004869
v -0.025000 0.048000 -0.004400
v -0.024708 0.049093 -0.004869
v -0.024588 0.049546 -0.006000
v -0.024708 0.049093 -0.007131
v -0.025000 0.048000 -0.007600
v -0.025292 0.046907 -0.007131
v -0.025412 0.046454 -0.006000
v -0.025292 0.046907 -0.004869
v -0.025000 0.048000 -0.004400
v -0.027282 0.049908 -0.004721
v -0.027226 0.050380 -0.005849
v -0.027480 0.049969 -0.006974
v -0.027895 0.048914 -0.007437
v -0.028228 0.047833 -0.006966
v -0.028284 0.047361 -0.005838
v -0.028031 0.047772 -0.004713
v -0.027616 0.048828 -0.004250
v -0.029694 0.050841 -0.004385
v -0.029666 0.051325 -0.005510
v -0.029977 0.050934 -0.006628
v -0.030446 0.049899 -0.007085
v -0.030798 0.048826 -0.006612
v -0.030826 0.048342 -0.005487
v -0.030514 0.048733 -0.004369
v -0.030045 0.049768 -0.003913
v -0.032104 0.051790 -0.004033
v -0.032054 0.052265 -0.005160
v -0.032320 0.051857 -0.006284
v -0.032746 0.050806 -0.006746
v -0.033083 0.049727 -0.006275
v -0.033134 0.049252 -0.005147
v -0.032868 0.049660 -0.004023
v -0.032441 0.050711 -0.003562
v -0.034654 0.052614 -0.003866
v -0.034525 0.053065 -0.004997
v -0.034627 0.052607 -0.006128
v -0.034902 0.051510 -0.006597
v -0.035188 0.050415 -0.006128
v -0.035317 0.049965 -0.004997
v -0.035215 0.050422 -0.003866
v -0.034940 0.051520 -0.003397
v -0.037442 0.053136 -0.004122
v -0.037185 0.053563 -0.005240
v -0.037023 0.053059 -0.006345
v -0.037053 0.051918 -0.006788
v -0.037256 0.050809 -0.006311
v -0.037513 0.050381 -0.005193
v -0.037675 0.050885 -0.004088
v -0.037645 0.052026 -0.003645
v -0.040490 0.053168 -0.005022
v -0.040091 0.053594 -0.006099
v -0.039639 0.053087 -0.007118
v -0.039399 0.051942 -0.007482
v -0.039510 0.050832 -0.006978
v -0.039909 0.050406 -0.005901
v -0.040361 0.050913 -0.004882
v -0.040601 0.052058 -0.004518
v -0.048039 0.051781 -0.008946
v -0.047512 0.052231 -0.009955
v -0.046795 0.051772 -0.010836
v -0.046308 0.050673 -0.011072
v -0.046337 0.049578 -0.010524
v -0.046864 0.049129 -0.009514
v -0.047580 0.049587 -0.008634
v -0.048067 0.050686 -0.008398
v -0.053695 0.049272 -0.013581
v -0.053072 0.049764 -0.014513
v -0.052155 0.049390 -0.015234
v -0.051483 0.048370 -0.015322
v -0.051448 0.047302 -0.014724
v -0.052072 0.046811 -0.013792
v -0.052989 0.047184 -0.013071
v -0.053661 0.048204 -0.012983
v -0.058114 0.046009 -0.018705
v -0.057440 0.046536 -0.019582
v -0.056420 0.046234 -0.020188
v -0.055651 0.045281 -0.020168
v -0.055584 0.044235 -0.019535
v -0.056258 0.043709 -0.018658
v -0.057278 0.044011 -0.018052
v -0.058047 0.044964 -0.018072
v -0.062016 0.042342 -0.024138
v -0.061329 0.042879 -0.024998
v -0.060283 0.042600 -0.025569
v -0.059489 0.041669 -0.025517
v -0.059414 0.040630 -0.024873
v -0.060101 0.040093 -0.024013
v -0.061148 0.040372 -0.023442
v -0.061941 0.041303 -0.023494
v -0.066122 0.038574 -0.029749
v -0.065452 0.039097 -0.030630
v -0.064438 0.038789 -0.031245
v -0.063676 0.037831 -0.031234
v -0.063611 0.036783 -0.030603
v -0.064282 0.036260 -0.029722
v -0.065295 0.036568 -0.029107
v -0.066057 0.037526 -0.029118
v -0.071140 0.034975 -0.035445
v -0.070511 0.035470 -0.036371
v -0.069582 0.035104 -0.037080
v -0.068898 0.034091 -0.037156
v -0.068860 0.033025 -0.036555
v -0.069489 0.032530 -0.035629
v -0.070418 0.032896 -0.034920
v -0.071102 0.033909 -0.034844
v -0.071140 0.034975 -0.023445
v -0.070511 0.035470 -0.024371
v -0.069582 0.035104 -0.025080
v -0.068898 0.034091 -0.025156
v -0.068860 0.033025 -0.024555
v -0.069489 0.032530 -0.023629
v -0.070418 0.032896 -0.022920
v -0.071102 0.033909 -0.022844
v -0.024708 0.049093 0.007131
v -0.024588 0.049546 0.006000
v -0.024708 0.049093 0.004869
v -0.025000 0.048000 0.004400
v -0.025292 0.046907 0.004869
v -0.025412 0.046454 0.006000
v -0.025292 0.046907 0.007131
v -0.025000 0.048000 0.007600
v -0.024708 0.049093 0.007131
v -0.024588 0.049546 0.006000
v -0.024708 0.049093 0.004869
v -0.025000 0.048000 0.004400
v -0.025292 0.046907 0.004869
v -0.025412 0.046454 0.006000
v -0.025292 0.046907 0.007131
v -0.025000 0.048000 0.007600
v -0.027282 0.049908 0.007279
v -0.027226 0.050380 0.006151
v -0.027480 0.049969 0.005026
v -0.027895 0.048914 0.004563
v -0.028228 0.047833 0.005034
v -0.028284 0.047361 0.006162
v -0.028031 0.047772 0.007287
v -0.027616 0.048828 0.007750
v -0.029694 0.050841 0.007615
v -0.029666 0.051325 0.006490
v -0.029977 0.050934 0.005372
v -0.030446 0.049899 0.004915
v -0.030798 0.048826 0.005388
v -0.030826 0.048342 0.006513
v -0.030514 0.048733 0.007631
v -0.030045 0.049768 0.008087
v -0.032104 0.051790 0.007967
v -0.032054 0.052265 0.006840
v -0.032320 0.051857 0.005716
v -0.032746 0.050806 0.005254
v -0.033083 0.049727 0.005725
v -0.033134 0.049252 0.006853
v -0.032868 0.049660 0.007977
v -0.032441 0.050711 0.008438
v -0.034654 0.052614 0.008134
v -0.034525 0.053065 0.007003
v -0.034627 0.052607 0.005872
v -0.034902 0.051510 0.005403
v -0.035188 0.050415 0.005872
v -0.035317 0.049965 0.007003
v -0.035215 0.050422 0.008134
v -0.034940 0.051520 0.008603
v -0.037442 0.053136 0.007878
v -0.037185 0.053563 0.006760
v -0.037023 0.053059 0.005655
v -0.037053 0.051918 0.005212
v -0.037256 0.050809 0.005689
v -0.037513 0.050381 0.006807
v -0.037675 0.050885 0.007912
v -0.037645 0.052026 0.008355
v -0.040490 0.053168 0.006978
v -0.040091 0.053594 0.005901
v -0.039639 0.053087 0.004882
v -0.039399 0.051942 0.004518
v -0.039510 0.050832 0.005022
v -0.039909 0.050406 0.006099
v -0.040361 0.050913 0.007118
v -0.040601 0.052058 0.007482
v -0.048039 0.051781 0.003054
v -0.047512 0.052231 0.002045
v -0.046795 0.051772 0.001164
v -0.046308 0.050673 0.000928
v -0.046337 0.049578 0.001476
v -0.046864 0.049129 0.002486
v -0.047580 0.049587 0.003366
v -0.048067 0.050686 0.003602
v -0.053695 0.049272 -0.001581
v -0.053072 0.049764 -0.002513
v -0.052155 0.049390 -0.003234
v -0.051483 0.048370 -0.003322
v -0.051448 0.047302 -0.002724
v -0.052072 0.046811 -0.001792
v -0.052989 0.047184 -0.001071
v -0.053661 0.048204 -0.000983
v -0.058114 0.046009 -0.006705
v -0.057440 0.046536 -0.007582
v -0.056420 0.046234 -0.008188
v -0.055651 0.045281 -0.008168
v -0.055584 0.044235 -0.007535
v -0.056258 0.043709 -0.006658
v -0.057278 0.044011 -0.006052
v -0.058047 0.044964 -0.006072
v -0.062016 0.042342 -0.012138
v -0.061329 0.042879 -0.012998
v -0.060283 0.042600 -0.013569
v -0.059489 0.041669 -0.013517
v -0.059414 0.040630 -0.012873
v -0.060101 0.040093 -0.012013
v -0.061148 0.040372 -0.011442
v -0.061941 0.041303 -0.011494
v -0.066122 0.038574 -0.017749
v -0.065452 0.039097 -0.018630
v -0.064438 0.038789 -0.019245
v -0.063676 0.037831 -0.019234
v -0.063611 0.036783 -0.018603
v -0.064282 0.036260 -0.017722
v -0.065295 0.036568 -0.017107
v -0.066057 0.037526 -0.017118
v -0.071140 0.034975 -0.023445
v -0.070511 0.035470 -0.024371
v -0.069582 0.035104 -0.025080
v -0.068898 0.034091 -0.025156
v -0.068860 0.033025 -0.024555
v -0.069489 0.032530 -0.023629
v -0.070418 0.032896 -0.022920
v -0.071102 0.033909 -0.022844
vn 0.1794 0.1794 0.9673
vn -0.1794 -0.1794 0.9673
vn 0.1794 -0.1794 0.9673
vn 0.9673 0.1794 -0.1794
vn 0.9673 -0.1794 0.1794
vn 0.9673 -0.1794 -0.1794
vn -0.1794 0.9673 -0.1794
vn 0.1794 0.9673 0.1794
vn 0.1794 0.9673 -0.1794
vn -0.9673 0.1794 0.1794
vn -0.9673 -0.1794 -0.1794
vn -0.9673 -0.1794 0.1794
vn -0.1794 0.1794 -0.9673
vn 0.1794 -0.1794 -0.9673
vn -0.1794 -0.1794 -0.9673
vn -0.1794 -0.9673 0.1794
vn -0.3251 -0.8881 0.3251
vn -0.3791 -0.9152 0.1369
vn -0.3251 -0.3251 0.8881
vn -0.1369 -0.3791 0.9152
vn -0.8881 -0.3251 0.3251
vn -0.9152 -0.1369 0.3791
vn -0.1794 0.1794 0.9673
vn -0.3251 0.3251 0.8881
vn -0.3791 0.1369 0.9152
vn -0.1794 0.9673 0.1794
vn -0.3251 0.8881 0.3251
vn -0.1369 0.9152 0.3791
vn -0.8881 0.3251 0.3251
vn -0.9152 0.3791 0.1369
vn -0.1794 -0.9673 -0.1794
vn -0.3251 -0.8881 -0.3251
vn -0.1369 -0.9152 -0.3791
vn -0.8881 -0.3251 -0.3251
vn -0.9152 -0.3791 -0.1369
vn -0.3251 -0.3251 -0.8881
vn -0.3791 -0.1369 -0.9152
vn -0.3251 0.8881 -0.3251
vn -0.3791 0.9152 -0.1369
vn -0.3251 0.3251 -0.8881
vn -0.1369 0.3791 -0.9152
vn -0.9673 0.1794 -0.1794
vn -0.8881 0.3251 -0.3251
vn -0.9152 0.1369 -0.3791
vn 0.1794 -0.9673 0.1794
vn 0.3251 -0.8881 0.3251
vn 0.1369 -0.9152 0.3791
vn 0.8881 -0.3251 0.3251
vn 0.9152 -0.3791 0.1369
vn 0.3251 -0.3251 0.8881
vn 0.3791 -0.1369 0.9152
vn 0.3251 0.8881 0.3251
vn 0.3791 0.9152 0.1369
vn 0.3251 0.3251 0.8881
vn 0.1369 0.3791 0.9152
vn 0.9673 0.1794 0.1794
vn 0.8881 0.3251 0.3251
vn 0.9152 0.1369 0.3791
vn 0.1794 -0.9673 -0.1794
vn 0.3251 -0.8881 -0.3251
vn 0.3791 -0.9152 -0.1369
vn 0.3251 -0.3251 -0.8881
vn 0.1369 -0.3791 -0.9152
vn 0.8881 -0.3251 -0.3251
vn 0.9152 -0.1369 -0.3791
vn 0.3251 0.8881 -0.3251
vn 0.1369 0.9152 -0.3791
vn 0.8881 0.3251 -0.3251
vn 0.9152 0.3791 -0.1369
vn 0.1794 0.1794 -0.9673
vn 0.3251 0.3251 -0.8881
vn 0.3791 0.1369 -0.9152
vn -0.3791 -0.9152 -0.1369
vn -0.9152 -0.3791 0.1369
vn -0.3791 -0.1369 0.9152
vn -0.9152 0.1369 0.3791
vn -0.3791 0.9152 0.1369
vn -0.9152 0.3791 -0.1369
vn -0.3791 0.1369 -0.9152
vn -0.9152 -0.1369 -0.3791
vn 0.1369 -0.9152 -0.3791
vn -0.1369 -0.3791 -0.9152
vn -0.1369 0.9152 -0.3791
vn 0.1369 0.3791 -0.9152
vn 0.9152 0.1369 -0.3791
vn 0.3791 -0.1369 -0.9152
vn 0.3791 -0.9152 0.1369
vn 0.9152 -0.3791 -0.1369
vn 0.3791 0.9152 -0.1369
vn 0.9152 0.3791 0.1369
vn 0.3791 0.1369 0.9152
vn 0.9152 -0.1369 0.3791
vn -0.1369 -0.9152 0.3791
vn 0.1369 -0.3791 0.9152
vn 0.1369 0.9152 0.3791
vn -0.1369 0.3791 0.9152
vn -1.0000 -0.0000 -0.0000
vn -0.0000 -0.0000 -1.0000
vn 1.0000 -0.0000 -0.0000
vn -0.0000 -0.0000 1.0000
vn -0.0000 -1.0000 -0.0000
vn -0.0000 1.0000 -0.0000
vn 0.3827 -0.0000 -0.9239
vn 0.9239 -0.0000 -0.3827
vn 0.9239 -0.0000 0.3827
vn 0.3827 -0.0000 0.9239
vn -0.3827 -0.0000 0.9239
vn -0.9239 -0.0000 0.3827
vn -0.9239 -0.0000 -0.3827
vn -0.3827 -0.0000 -0.9239
vn 0.5878 -0.0000 -0.8090
vn 0.9511 -0.0000 -0.3090
vn 0.9511 -0.0000 0.3090
vn 0.5878 -0.0000 0.8090
vn -0.5878 -0.0000 0.8090
vn -0.9511 -0.0000 0.3090
vn -0.9511 -0.0000 -0.3090
vn -0.5878 -0.0000 -0.8090
vn -0.0000 0.6913 -0.7226
vn 0.2048 0.9122 -0.3548
vn 0.3613 0.6913 -0.6258
vn -0.0000 -0.6913 -0.7226
vn 0.2048 -0.9122 -0.3548
vn -0.0000 -0.9122 -0.4097
vn 0.4642 -0.3718 -0.8040
vn -0.0000 -0.3718 -0.9283
vn 0.4642 0.3718 -0.8040
vn -0.0000 0.3718 -0.9283
vn -0.0000 0.9122 -0.4097
vn 0.3613 -0.6913 -0.6258
vn 0.5000 -0.0000 -0.8660
vn 0.8660 -0.0000 -0.5000
vn 0.8040 -0.3718 -0.4642
vn 0.8040 0.3718 -0.4642
vn 0.3548 0.9122 -0.2049
vn 0.3548 -0.9122 -0.2049
vn 0.6258 -0.6913 -0.3613
vn 0.6258 0.6913 -0.3613
vn 0.4097 -0.9122 -0.0000
vn 0.7226 -0.6913 -0.0000
vn 0.4097 0.9122 -0.0000
vn 0.7226 0.6913 -0.0000
vn 0.9283 -0.3718 -0.0000
vn 0.9283 0.3718 -0.0000
vn 0.8660 -0.0000 0.5000
vn 0.6258 0.6913 0.3613
vn 0.3548 -0.9122 0.2048
vn 0.8040 -0.3718 0.4642
vn 0.8040 0.3718 0.4642
vn 0.3548 0.9122 0.2049
vn 0.6258 -0.6913 0.3613
vn 0.2049 -0.9122 0.3548
vn 0.5000 -0.0000 0.8660
vn 0.4642 -0.3718 0.8040
vn 0.3613 0.6913 0.6258
vn 0.4642 0.3718 0.8040
vn 0.2048 0.9122 0.3548
vn 0.3613 -0.6913 0.6258
vn -0.0000 0.3718 0.9283
vn -0.0000 0.9122 0.4097
vn -0.0000 -0.9122 0.4097
vn -0.0000 -0.6913 0.7226
vn -0.0000 0.6913 0.7226
vn -0.0000 -0.3718 0.9283
vn -0.2048 -0.9122 0.3548
vn -0.4642 -0.3718 0.8040
vn -0.3613 -0.6913 0.6258
vn -0.5000 -0.0000 0.8660
vn -0.3613 0.6913 0.6258
vn -0.4642 0.3718 0.8040
vn -0.2048 0.9122 0.3548
vn -0.6258 0.6913 0.3613
vn -0.6258 -0.6913 0.3613
vn -0.3548 -0.9122 0.2049
vn -0.8040 -0.3718 0.4642
vn -0.8040 0.3718 0.4642
vn -0.3548 0.9122 0.2049
vn -0.8660 -0.0000 0.5000
vn -0.4097 -0.9122 -0.0000
vn -0.9283 -0.3718 -0.0000
vn -0.7226 0.6913 -0.0000
vn -0.9283 0.3718 -0.0000
vn -0.4097 0.9122 -0.0000
vn -0.7226 -0.6913 -0.0000
vn -0.3548 0.9122 -0.2049
vn -0.3548 -0.9122 -0.2048
vn -0.6258 -0.6913 -0.3613
vn -0.8660 -0.0000 -0.5000
vn -0.6258 0.6913 -0.3613
vn -0.8040 -0.3718 -0.4642
vn -0.8040 0.3718 -0.4642
vn -0.4642 -0.3718 -0.8040
vn -0.3613 -0.6913 -0.6258
vn -0.4642 0.3718 -0.8040
vn -0.5000 -0.0000 -0.8660
vn -0.3613 0.6913 -0.6258
vn -0.2049 -0.9122 -0.3548
vn -0.2048 0.9122 -0.3548
vn -0.6509 -0.3906 -0.6509
vn -0.6509 -0.3906 -0.6510
vn 0.9662 -0.2577 -0.0000
vn 0.1641 0.3513 0.9218
vn 0.2077 0.3362 0.9186
vn 0.1640 0.3514 0.9217
vn 0.3394 0.8614 0.3779
vn 0.2986 0.8747 0.3818
vn 0.2985 0.8746 0.3819
vn 0.2722 0.8822 -0.3843
vn 0.2585 0.8870 -0.3827
vn 0.2585 0.8870 -0.3826
vn 0.0461 0.3859 -0.9214
vn 0.0671 0.3781 -0.9233
vn 0.0672 0.3779 -0.9234
vn -0.2066 -0.3365 -0.9187
vn -0.1629 -0.3517 -0.9218
vn -0.2976 -0.8750 -0.3818
vn -0.3384 -0.8617 -0.3780
vn -0.2975 -0.8750 -0.3819
vn -0.2584 -0.8870 0.3827
vn -0.2721 -0.8822 0.3843
vn -0.2584 -0.8871 0.3826
vn -0.0669 -0.3781 0.9233
vn -0.0458 -0.3860 0.9214
vn -0.0669 -0.3780 0.9234
vn 0.2077 0.3361 0.9186
vn 0.2547 0.3188 0.9130
vn 0.3831 0.8452 0.3726
vn 0.3395 0.8614 0.3777
vn 0.2871 0.8766 -0.3861
vn 0.2722 0.8821 -0.3844
vn 0.0229 0.3945 -0.9186
vn 0.0461 0.3860 -0.9213
vn -0.2547 -0.3188 -0.9130
vn -0.2066 -0.3365 -0.9188
vn -0.3385 -0.8618 -0.3778
vn -0.3831 -0.8452 -0.3726
vn -0.2721 -0.8822 0.3844
vn -0.2871 -0.8766 0.3861
vn -0.0458 -0.3861 0.9213
vn -0.0229 -0.3945 0.9186
vn 0.2547 0.3187 0.9130
vn 0.2161 0.3331 0.9178
vn 0.3474 0.8586 0.3769
vn 0.2753 0.8810 -0.3847
vn 0.0406 0.3879 -0.9208
vn -0.2187 -0.3322 -0.9175
vn -0.3496 -0.8578 -0.3767
vn -0.2756 -0.8809 0.3847
vn -0.0413 -0.3877 0.9209
vn 0.2161 0.3333 0.9177
vn 0.0819 0.3740 0.9238
vn 0.2227 0.8968 0.3824
vn 0.3473 0.8586 0.3772
vn 0.2332 0.8939 -0.3829
vn 0.2752 0.8811 -0.3845
vn 0.1052 0.3683 -0.9237
vn 0.0407 0.3876 -0.9209
vn -0.0861 -0.3729 -0.9239
vn -0.2186 -0.3324 -0.9174
vn -0.3494 -0.8578 -0.3770
vn -0.2264 -0.8958 -0.3824
vn -0.2755 -0.8811 0.3845
vn -0.2337 -0.8938 0.3829
vn -0.0413 -0.3874 0.9210
vn -0.1062 -0.3680 0.9237
vn 0.0820 0.3742 0.9237
vn -0.1326 0.4119 0.9015
vn 0.0233 0.9320 0.3617
vn 0.2226 0.8966 0.3827
vn 0.1656 0.9059 -0.3898
vn 0.2332 0.8940 -0.3826
vn 0.2101 0.3496 -0.9130
vn 0.1054 0.3677 -0.9239
vn 0.1307 -0.4116 -0.9019
vn -0.0859 -0.3733 -0.9237
vn -0.2259 -0.8957 -0.3829
vn -0.0249 -0.9319 -0.3619
vn -0.2335 -0.8939 0.3826
vn -0.1658 -0.9059 0.3898
vn -0.1063 -0.3676 0.9239
vn -0.2106 -0.3495 0.9130
vn -0.3689 0.4147 0.8319
vn -0.1325 0.4120 0.9015
vn -0.1964 0.9344 0.2972
vn 0.0233 0.9319 0.3619
vn 0.0911 0.9068 -0.4116
vn 0.1655 0.9059 -0.3897
vn 0.3253 0.3480 -0.8792
vn 0.2102 0.3493 -0.9131
vn 0.3690 -0.4147 -0.8318
vn 0.1308 -0.4118 -0.9018
vn 0.1965 -0.9344 -0.2972
vn -0.0247 -0.9318 -0.3621
vn -0.0911 -0.9068 0.4116
vn -0.1657 -0.9059 0.3897
vn -0.3253 -0.3480 0.8793
vn -0.2106 -0.3493 0.9130
vn -0.5851 0.3747 0.7193
vn -0.3972 0.8973 0.1924
vn 0.0232 0.8942 -0.4470
vn 0.0912 0.9068 -0.4116
vn 0.4302 0.3675 -0.8245
vn 0.5856 -0.3745 -0.7189
vn 0.3977 -0.8972 -0.1922
vn 0.1965 -0.9344 -0.2971
vn -0.0232 -0.8942 0.4471
vn -0.4301 -0.3674 0.8246
vn -0.3253 -0.3480 0.8792
vn -0.7480 0.3055 0.5892
vn -0.5851 0.3747 0.7192
vn -0.5487 0.8329 0.0718
vn -0.3973 0.8973 0.1925
vn -0.0281 0.8725 -0.4879
vn 0.5095 0.4010 -0.7613
vn 0.4303 0.3674 -0.8246
vn 0.7489 -0.3050 -0.5883
vn 0.5855 -0.3746 -0.7189
vn 0.5495 -0.8325 -0.0710
vn 0.0282 -0.8724 0.4880
vn -0.0232 -0.8942 0.4470
vn -0.5093 -0.4009 0.7615
vn -0.4302 -0.3674 0.8246
vn -0.8331 0.2467 0.4951
vn -0.7480 0.3055 0.5893
vn -0.5486 0.8330 0.0716
vn -0.6278 0.7782 -0.0157
vn -0.0280 0.8724 -0.4879
vn -0.0548 0.8540 -0.5175
vn 0.5094 0.4012 -0.7613
vn 0.5507 0.4296 -0.7157
vn 0.7489 -0.3049 -0.5884
vn 0.8336 -0.2462 -0.4944
vn 0.6283 -0.7778 0.0163
vn 0.5495 -0.8325 -0.0708
vn 0.0549 -0.8539 0.5175
vn 0.0281 -0.8724 0.4880
vn -0.5505 -0.4295 0.7159
vn -0.5092 -0.4011 0.7615
vn -0.8548 0.2276 0.4664
vn -0.8331 0.2466 0.4951
vn -0.6278 0.7782 -0.0158
vn -0.6479 0.7605 -0.0424
vn -0.0548 0.8539 -0.5175
vn -0.0615 0.8480 -0.5264
vn 0.5506 0.4297 -0.7157
vn 0.5610 0.4387 -0.7020
vn 0.8336 -0.2462 -0.4945
vn 0.8548 -0.2276 -0.4664
vn 0.6479 -0.7605 0.0424
vn 0.6282 -0.7779 0.0164
vn 0.0615 -0.8480 0.5264
vn 0.0548 -0.8539 0.5176
vn -0.5610 -0.4387 0.7020
vn -0.5505 -0.4296 0.7158
vn -0.8275 0.2512 0.5021
vn -0.6226 0.7825 -0.0093
vn -0.0529 0.8554 -0.5152
vn 0.5476 0.4272 -0.7195
vn 0.8273 -0.2514 -0.5024
vn 0.6224 -0.7827 0.0090
vn 0.0529 -0.8555 0.5152
vn -0.5477 -0.4273 0.7194
vn -0.8007 0.2722 0.5336
vn -0.6226 0.7825 -0.0092
vn -0.5982 0.8011 0.0211
vn -0.0529 0.8555 -0.5152
vn -0.0450 0.8621 -0.5048
vn 0.5352 0.4165 -0.7349
vn 0.8005 -0.2724 -0.5339
vn 0.5980 -0.8012 -0.0213
vn 0.0450 -0.8621 0.5048
vn 0.0529 -0.8555 0.5151
vn -0.5352 -0.4165 0.7349
vn -0.5477 -0.4272 0.7194
vn -0.5353 -0.4165 0.7349
vn -0.0451 0.8621 -0.5048
vt 0.682856 0.008625
vt 0.553472 0.326950
vt 0.603405 0.014152
vt 0.776749 0.661614
vt 0.694981 0.858965
vt 0.694981 0.661614
vt 0.016562 0.016145
vt 0.252950 0.458044
vt 0.016562 0.457005
vt 0.291677 0.927250
vt 0.369544 0.751203
vt 0.371258 0.938327
vt 0.716950 0.340375
vt 0.792315 0.041085
vt 0.794669 0.357781
vt 0.285571 0.017543
vt 0.278933 0.011030
vt 0.285320 0.009669
vt 0.547600 0.335072
vt 0.546643 0.329714
vt 0.554501 0.342333
vt 0.553262 0.334655
vt 0.632923 0.321424
vt 0.639283 0.328695
vt 0.632714 0.329128
vt 0.252950 0.017185
vt 0.258862 0.011184
vt 0.260384 0.017396
vt 0.633952 0.336806
vt 0.641804 0.334023
vt 0.521959 0.016500
vt 0.527871 0.009931
vt 0.529393 0.016289
vt 0.376682 0.744328
vt 0.377780 0.750335
vt 0.371968 0.736069
vt 0.370221 0.743207
vt 0.009924 0.010089
vt 0.016311 0.008625
vt 0.292387 0.724991
vt 0.284849 0.731546
vt 0.284908 0.726467
vt 0.289963 0.740126
vt 0.290640 0.732130
vt 0.285571 0.458399
vt 0.278933 0.464455
vt 0.277635 0.458255
vt 0.688687 0.866758
vt 0.687272 0.860735
vt 0.694981 0.874082
vt 0.694981 0.867151
vt 0.258862 0.464612
vt 0.252699 0.465919
vt 0.776749 0.874082
vt 0.783043 0.866758
vt 0.784458 0.871425
vt 0.776749 0.858965
vt 0.776749 0.867151
vt 0.521959 0.457356
vt 0.527871 0.463356
vt 0.521707 0.464875
vt 0.799696 0.034853
vt 0.800634 0.040607
vt 0.795644 0.026032
vt 0.793266 0.033437
vt 0.009924 0.463517
vt 0.008625 0.457148
vt 0.717925 0.008625
vt 0.710011 0.014767
vt 0.710615 0.009275
vt 0.714596 0.023679
vt 0.715547 0.016031
vt 0.521707 0.008625
vt 0.379494 0.937459
vt 0.252699 0.009665
vt 0.691010 0.500615
vt 0.529393 0.457144
vt 0.802988 0.357303
vt 0.008625 0.016289
vt 0.708260 0.019919
vt 0.710615 0.336615
vt 0.285320 0.465918
vt 0.687272 0.663384
vt 0.016311 0.464879
vt 0.784458 0.860735
vt 0.784458 0.663384
vt 0.277635 0.017399
vt 0.596577 0.016916
vt 0.260384 0.458255
vt 0.641076 0.323146
vt 0.691010 0.010348
vt 0.008625 0.696113
vt 0.119892 0.499698
vt 0.119892 0.712641
vt 0.895156 0.387392
vt 0.948481 0.486534
vt 0.895156 0.498894
vt 0.414918 0.707741
vt 0.529393 0.483169
vt 0.529393 0.707741
vt 0.569506 0.807231
vt 0.622841 0.931093
vt 0.569506 0.918732
vt 0.801708 0.644027
vt 0.877905 0.375368
vt 0.877905 0.644364
vt 0.546643 0.789980
vt 0.622841 0.520649
vt 0.622841 0.789645
vt 0.137142 0.696113
vt 0.248409 0.499697
vt 0.248409 0.712640
vt 0.895156 0.528504
vt 0.948481 0.627647
vt 0.895156 0.640006
vt 0.397668 0.483169
vt 0.283193 0.707741
vt 0.283193 0.483169
vt 0.194295 0.729891
vt 0.247629 0.853753
vt 0.194295 0.841392
vt 0.820239 0.277621
vt 0.896436 0.008962
vt 0.896436 0.277957
vt 0.708260 0.644363
vt 0.784458 0.375032
vt 0.784458 0.644028
vt 0.170955 0.729891
vt 0.118643 0.816439
vt 0.133835 0.731757
vt 0.850559 0.905217
vt 0.888717 0.841702
vt 0.888717 0.905217
vt 0.402697 0.730631
vt 0.478776 0.850706
vt 0.402697 0.850371
vt 0.508894 0.878816
vt 0.544886 0.823371
vt 0.546085 0.883585
vt 0.646546 0.617971
vt 0.681240 0.539656
vt 0.682910 0.625659
vt 0.014578 0.736133
vt 0.009599 0.731248
vt 0.014389 0.730227
vt 0.114123 0.822444
vt 0.113483 0.818413
vt 0.119193 0.827988
vt 0.118375 0.822213
vt 0.155763 0.814573
vt 0.160427 0.820116
vt 0.155495 0.820347
vt 0.478776 0.730966
vt 0.483210 0.726465
vt 0.484352 0.731124
vt 0.156313 0.826122
vt 0.162241 0.824149
vt 0.090657 0.735797
vt 0.095091 0.730871
vt 0.096232 0.735639
vt 0.550184 0.818157
vt 0.551056 0.822653
vt 0.546582 0.812001
vt 0.545330 0.817368
vt 0.397719 0.726089
vt 0.402509 0.724991
vt 0.509391 0.807231
vt 0.503791 0.812208
vt 0.503793 0.808398
vt 0.507695 0.818601
vt 0.508138 0.812599
vt 0.014578 0.855871
vt 0.009599 0.860413
vt 0.008625 0.855764
vt 0.893438 0.835857
vt 0.894499 0.840374
vt 0.888717 0.830363
vt 0.888717 0.835562
vt 0.483210 0.855632
vt 0.478588 0.856611
vt 0.850559 0.830363
vt 0.845838 0.835857
vt 0.844777 0.832357
vt 0.850559 0.841702
vt 0.850559 0.835562
vt 0.090657 0.855536
vt 0.095091 0.860036
vt 0.090468 0.861175
vt 0.686719 0.534916
vt 0.687475 0.539223
vt 0.683601 0.528337
vt 0.681884 0.533912
vt 0.397719 0.855256
vt 0.396745 0.850479
vt 0.647238 0.520649
vt 0.641358 0.525326
vt 0.641761 0.521202
vt 0.644876 0.531968
vt 0.645521 0.526224
vt 0.090468 0.729891
vt 0.552255 0.882867
vt 0.478588 0.725326
vt 0.177044 0.878059
vt 0.096232 0.855377
vt 0.689145 0.625226
vt 0.396745 0.730739
vt 0.640091 0.529206
vt 0.641761 0.615208
vt 0.014389 0.861511
vt 0.894499 0.903889
vt 0.402509 0.856277
vt 0.844777 0.840374
vt 0.844777 0.903889
vt 0.008625 0.736025
vt 0.128675 0.733732
vt 0.484352 0.850864
vt 0.161852 0.815982
vt 0.177044 0.731300
vt 0.979595 0.661874
vt 0.982280 0.860725
vt 0.979595 0.860985
vt 0.982280 0.661614
vt 0.984991 0.860971
vt 0.963437 0.008625
vt 0.966302 0.213044
vt 0.963437 0.213044
vt 0.966302 0.008625
vt 0.968728 0.213044
vt 0.985979 0.008625
vt 0.988664 0.207994
vt 0.985979 0.207733
vt 0.988664 0.008886
vt 0.991375 0.207748
vt 0.886617 0.302325
vt 0.888673 0.307314
vt 0.883710 0.309368
vt 0.965732 0.297914
vt 0.968537 0.498633
vt 0.965732 0.498784
vt 0.968537 0.297763
vt 0.971096 0.498894
vt 0.689328 0.898388
vt 0.687272 0.893408
vt 0.692236 0.891333
vt 0.422208 0.874323
vt 0.426087 0.884481
vt 0.422208 0.884942
vt 0.426087 0.873862
vt 0.430420 0.884625
vt 0.473449 0.885319
vt 0.484352 0.881674
vt 0.484352 0.885319
vt 0.473449 0.881674
vt 0.484352 0.877298
vt 0.473449 0.877298
vt 0.484352 0.873862
vt 0.396745 0.873862
vt 0.400624 0.884942
vt 0.396745 0.884481
vt 0.400624 0.874323
vt 0.404957 0.884798
vt 0.205008 0.871004
vt 0.194802 0.874422
vt 0.194295 0.871004
vt 0.822803 0.308033
vt 0.826951 0.295208
vt 0.833662 0.300083
vt 0.205516 0.874422
vt 0.194841 0.878797
vt 0.205554 0.878797
vt 0.194394 0.882457
vt 0.820239 0.335859
vt 0.831144 0.327972
vt 0.833719 0.335857
vt 0.505399 0.736226
vt 0.509255 0.734792
vt 0.508425 0.737964
vt 0.514933 0.771010
vt 0.511142 0.769975
vt 0.512778 0.769032
vt 0.808092 0.839459
vt 0.812527 0.842615
vt 0.808602 0.843131
vt 0.507843 0.740246
vt 0.503889 0.737976
vt 0.507617 0.733851
vt 0.510206 0.731212
vt 0.510209 0.766535
vt 0.813077 0.846081
vt 0.810073 0.846477
vt 0.812546 0.835503
vt 0.812341 0.838900
vt 0.817279 0.838900
vt 0.817089 0.842615
vt 0.813112 0.832941
vt 0.817108 0.835503
vt 0.511145 0.734792
vt 0.509252 0.769978
vt 0.816568 0.846081
vt 0.511917 0.737964
vt 0.511909 0.772753
vt 0.507616 0.769040
vt 0.819611 0.846477
vt 0.821582 0.839459
vt 0.512779 0.733851
vt 0.514937 0.736226
vt 0.508418 0.772758
vt 0.821065 0.843131
vt 0.516352 0.737976
vt 0.512405 0.740246
vt 0.808495 0.866822
vt 0.812771 0.870473
vt 0.808092 0.870473
vt 0.516678 0.733216
vt 0.505394 0.771025
vt 0.506671 0.767412
vt 0.808495 0.874124
vt 0.812817 0.874124
vt 0.812949 0.863728
vt 0.812817 0.866822
vt 0.513722 0.732222
vt 0.812949 0.877218
vt 0.809641 0.877218
vt 0.503649 0.768017
vt 0.506671 0.765531
vt 0.817612 0.870473
vt 0.817290 0.874124
vt 0.816373 0.863728
vt 0.817290 0.866822
vt 0.513719 0.730341
vt 0.816373 0.877218
vt 0.516673 0.729740
vt 0.820716 0.866822
vt 0.512771 0.728712
vt 0.507616 0.763900
vt 0.818995 0.877218
vt 0.821320 0.870473
vt 0.514923 0.726730
vt 0.503649 0.764541
vt 0.820716 0.874124
vt 0.509252 0.762957
vt 0.505394 0.761528
vt 0.507833 0.757504
vt 0.508418 0.759786
vt 0.851423 0.299184
vt 0.855162 0.303415
vt 0.850913 0.302856
vt 0.511896 0.724992
vt 0.855367 0.306812
vt 0.851442 0.306296
vt 0.852893 0.295838
vt 0.855349 0.299701
vt 0.511134 0.727771
vt 0.508405 0.724992
vt 0.511909 0.759780
vt 0.511142 0.762954
vt 0.859929 0.306812
vt 0.859389 0.296234
vt 0.859910 0.299701
vt 0.509244 0.727771
vt 0.859424 0.309374
vt 0.855932 0.309374
vt 0.860100 0.303415
vt 0.512778 0.763892
vt 0.863905 0.306296
vt 0.862432 0.295838
vt 0.863886 0.299184
vt 0.507609 0.728712
vt 0.512394 0.757497
vt 0.514933 0.761514
vt 0.864403 0.302856
vt 0.505384 0.726730
vt 0.506667 0.730341
vt 0.513723 0.765520
vt 0.851499 0.337419
vt 0.856051 0.340406
vt 0.852860 0.340732
vt 0.851352 0.330246
vt 0.855483 0.333275
vt 0.850969 0.333736
vt 0.503643 0.729740
vt 0.855669 0.336993
vt 0.855779 0.327152
vt 0.855522 0.329820
vt 0.860204 0.336993
vt 0.859523 0.340406
vt 0.860057 0.329820
vt 0.860392 0.333275
vt 0.503649 0.733216
vt 0.516678 0.764521
vt 0.513723 0.767401
vt 0.506670 0.732222
vt 0.516678 0.767997
vt 0.863890 0.337419
vt 0.501602 0.734043
vt 0.862343 0.340732
vt 0.864381 0.333736
vt 0.068859 0.886823
vt 0.071152 0.881128
vt 0.071152 0.884466
vt 0.065616 0.886820
vt 0.068859 0.878766
vt 0.063323 0.884457
vt 0.065616 0.878762
vt 0.063323 0.881119
vt 0.039592 0.884507
vt 0.044174 0.886819
vt 0.041490 0.886847
vt 0.046073 0.884440
vt 0.039592 0.881169
vt 0.046073 0.881102
vt 0.041490 0.878790
vt 0.044174 0.878762
vt 0.452727 0.893648
vt 0.456199 0.888951
vt 0.456061 0.893798
vt 0.902271 0.805964
vt 0.900175 0.813113
vt 0.897596 0.811606
vt 0.900064 0.803633
vt 0.895156 0.809561
vt 0.656862 0.821111
vt 0.657306 0.814236
vt 0.659526 0.816523
vt 0.881632 0.344170
vt 0.884990 0.350171
vt 0.881703 0.350615
vt 0.916256 0.010684
vt 0.918921 0.018460
vt 0.913687 0.012207
vt 0.918684 0.008625
vt 0.921378 0.016800
vt 0.642368 0.642909
vt 0.642504 0.649541
vt 0.640091 0.645140
vt 0.452862 0.888877
vt 0.456139 0.883827
vt 0.907081 0.801058
vt 0.904738 0.807609
vt 0.904986 0.798609
vt 0.654273 0.824648
vt 0.654755 0.818625
vt 0.881664 0.337924
vt 0.884920 0.343817
vt 0.924013 0.023602
vt 0.923571 0.014456
vt 0.926415 0.021884
vt 0.644673 0.647109
vt 0.644938 0.653043
vt 0.452803 0.883791
vt 0.456063 0.878719
vt 0.911835 0.796285
vt 0.909494 0.802762
vt 0.909651 0.793929
vt 0.651915 0.827782
vt 0.652220 0.822084
vt 0.881702 0.332306
vt 0.884952 0.337614
vt 0.928595 0.028139
vt 0.928496 0.019422
vt 0.931040 0.026466
vt 0.647055 0.650532
vt 0.647268 0.656315
vt 0.452727 0.878653
vt 0.456175 0.874022
vt 0.916267 0.791035
vt 0.914290 0.797943
vt 0.913798 0.789032
vt 0.649901 0.831132
vt 0.649819 0.825280
vt 0.881664 0.327607
vt 0.884990 0.331962
vt 0.932414 0.032576
vt 0.933210 0.024097
vt 0.934999 0.031073
vt 0.649426 0.653865
vt 0.649364 0.660027
vt 0.654855 0.657234
vt 0.653547 0.663141
vt 0.651654 0.657826
vt 0.920014 0.784726
vt 0.918860 0.792523
vt 0.917181 0.783352
vt 0.648283 0.835304
vt 0.647667 0.828874
vt 0.651529 0.835812
vt 0.653086 0.831804
vt 0.935373 0.037454
vt 0.937456 0.029055
vt 0.938136 0.036256
vt 0.651089 0.664854
vt 0.658181 0.670198
vt 0.656805 0.662714
vt 0.925557 0.777704
vt 0.922784 0.785907
vt 0.922658 0.776902
vt 0.644528 0.839923
vt 0.645869 0.833529
vt 0.647081 0.841038
vt 0.940352 0.042692
vt 0.943447 0.042082
vt 0.940961 0.034866
vt 0.654881 0.670401
vt 0.656211 0.692773
vt 0.925339 0.754314
vt 0.922146 0.754529
vt 0.919560 0.776310
vt 0.645330 0.861703
vt 0.648645 0.861739
vt 0.650374 0.841324
vt 0.940049 0.064273
vt 0.937458 0.043512
vt 0.942991 0.063845
vt 0.653588 0.693086
vt 0.652301 0.671452
vt 0.658468 0.713858
vt 0.659526 0.692821
vt 0.926181 0.734847
vt 0.928284 0.754725
vt 0.923268 0.734773
vt 0.643225 0.881294
vt 0.642715 0.861325
vt 0.645827 0.880990
vt 0.941140 0.082174
vt 0.944275 0.083066
vt 0.946186 0.064041
vt 0.655164 0.713581
vt 0.655809 0.733918
vt 0.920861 0.716958
vt 0.920139 0.735684
vt 0.918002 0.717085
vt 0.645314 0.900731
vt 0.649137 0.880796
vt 0.647875 0.900000
vt 0.936171 0.099166
vt 0.938228 0.082265
vt 0.939196 0.100471
vt 0.652523 0.733496
vt 0.652570 0.713212
vt 0.652356 0.753818
vt 0.913944 0.699739
vt 0.914984 0.718408
vt 0.911105 0.699920
vt 0.648241 0.920519
vt 0.651171 0.899661
vt 0.650786 0.919668
vt 0.929448 0.116171
vt 0.933311 0.099057
vt 0.932431 0.117589
vt 0.649076 0.753356
vt 0.649981 0.732701
vt 0.648851 0.774504
vt 0.906923 0.681785
vt 0.908130 0.701356
vt 0.904059 0.681897
vt 0.651260 0.941532
vt 0.654076 0.919288
vt 0.653825 0.940833
vt 0.922417 0.134487
vt 0.926608 0.116007
vt 0.925452 0.135762
vt 0.645563 0.774093
vt 0.646554 0.752441
vt 0.645983 0.796985
vt 0.901184 0.661666
vt 0.901031 0.683189
vt 0.898275 0.661614
vt 0.653618 0.964634
vt 0.657122 0.940505
vt 0.656217 0.964284
vt 0.916595 0.155393
vt 0.919552 0.134393
vt 0.919720 0.156332
vt 0.642681 0.796692
vt 0.643017 0.773330
vt 0.093939 0.886823
vt 0.096232 0.881128
vt 0.096232 0.884466
vt 0.090696 0.886820
vt 0.093939 0.878766
vt 0.088403 0.884457
vt 0.090696 0.878762
vt 0.088403 0.881119
vt 0.015861 0.884507
vt 0.020443 0.886819
vt 0.017759 0.886847
vt 0.022341 0.884439
vt 0.015861 0.881169
vt 0.022341 0.881102
vt 0.017759 0.878790
vt 0.020443 0.878762
vt 0.223549 0.890789
vt 0.227021 0.886092
vt 0.226883 0.890939
vt 0.851893 0.805964
vt 0.849796 0.813113
vt 0.847217 0.811606
vt 0.849686 0.803633
vt 0.844777 0.809561
vt 0.959681 0.668490
vt 0.960125 0.661614
vt 0.962345 0.663902
vt 0.244272 0.888021
vt 0.247629 0.894022
vt 0.244343 0.894466
vt 0.916256 0.175641
vt 0.918921 0.183417
vt 0.913687 0.177164
vt 0.918684 0.173583
vt 0.921378 0.181757
vt 0.810368 0.661614
vt 0.810505 0.668246
vt 0.808092 0.663845
vt 0.223684 0.886019
vt 0.226961 0.880969
vt 0.856703 0.801058
vt 0.854359 0.807609
vt 0.854608 0.798609
vt 0.957092 0.672026
vt 0.957574 0.666004
vt 0.244304 0.881776
vt 0.247559 0.887668
vt 0.924013 0.188559
vt 0.923571 0.179413
vt 0.926415 0.186841
vt 0.812673 0.665814
vt 0.812939 0.671748
vt 0.223625 0.880933
vt 0.226886 0.875860
vt 0.861456 0.796285
vt 0.859115 0.802762
vt 0.859272 0.793929
vt 0.954734 0.675161
vt 0.955039 0.669463
vt 0.244342 0.876158
vt 0.247591 0.881466
vt 0.928595 0.193096
vt 0.928496 0.184379
vt 0.931040 0.191423
vt 0.815056 0.669237
vt 0.815269 0.675020
vt 0.223549 0.875794
vt 0.226997 0.871163
vt 0.865888 0.791035
vt 0.863911 0.797943
vt 0.863419 0.789032
vt 0.952720 0.678511
vt 0.952638 0.672658
vt 0.244303 0.871459
vt 0.247629 0.875814
vt 0.932414 0.197533
vt 0.933210 0.189054
vt 0.934999 0.196030
vt 0.817427 0.672570
vt 0.817365 0.678732
vt 0.822856 0.675939
vt 0.821548 0.681846
vt 0.819655 0.676531
vt 0.869636 0.784726
vt 0.868482 0.792523
vt 0.866802 0.783353
vt 0.951102 0.682682
vt 0.950486 0.676252
vt 0.954348 0.683190
vt 0.955905 0.679182
vt 0.935373 0.202411
vt 0.937456 0.194012
vt 0.938136 0.201213
vt 0.819090 0.683559
vt 0.826181 0.688903
vt 0.824806 0.681419
vt 0.875178 0.777704
vt 0.872406 0.785907
vt 0.872279 0.776902
vt 0.947347 0.687301
vt 0.948688 0.680908
vt 0.949900 0.688417
vt 0.940352 0.207650
vt 0.943447 0.207039
vt 0.940961 0.199823
vt 0.822882 0.689106
vt 0.824212 0.711478
vt 0.874961 0.754314
vt 0.871767 0.754529
vt 0.869181 0.776310
vt 0.948149 0.709082
vt 0.951464 0.709117
vt 0.953193 0.688702
vt 0.940049 0.229231
vt 0.937458 0.208469
vt 0.942991 0.228802
vt 0.821589 0.711791
vt 0.820302 0.690157
vt 0.826469 0.732563
vt 0.827526 0.711525
vt 0.875803 0.734847
vt 0.877905 0.754725
vt 0.872889 0.734773
vt 0.946044 0.728672
vt 0.945534 0.708703
vt 0.948646 0.728369
vt 0.941140 0.247131
vt 0.944275 0.248023
vt 0.946186 0.228998
vt 0.823165 0.732286
vt 0.823810 0.752623
vt 0.870482 0.716958
vt 0.869760 0.735684
vt 0.867623 0.717085
vt 0.948133 0.748109
vt 0.951956 0.728174
vt 0.950694 0.747378
vt 0.936171 0.264123
vt 0.938228 0.247222
vt 0.939196 0.265428
vt 0.820524 0.752201
vt 0.820571 0.731917
vt 0.820357 0.772523
vt 0.863565 0.699739
vt 0.864606 0.718408
vt 0.860726 0.699920
vt 0.951060 0.767898
vt 0.953990 0.747039
vt 0.953605 0.767046
vt 0.929448 0.281128
vt 0.933311 0.264014
vt 0.932431 0.282547
vt 0.817077 0.772061
vt 0.817982 0.751406
vt 0.816852 0.793209
vt 0.856544 0.681785
vt 0.857751 0.701356
vt 0.853680 0.681897
vt 0.954079 0.788910
vt 0.956895 0.766666
vt 0.956644 0.788212
vt 0.922417 0.299445
vt 0.926608 0.280964
vt 0.925452 0.300719
vt 0.813564 0.792798
vt 0.814555 0.771146
vt 0.813984 0.815690
vt 0.850806 0.661666
vt 0.850652 0.683189
vt 0.847897 0.661614
vt 0.956437 0.812013
vt 0.959941 0.787884
vt 0.959036 0.811662
vt 0.916595 0.320350
vt 0.919552 0.299350
vt 0.919720 0.321289
vt 0.810682 0.815397
vt 0.811018 0.792035
vt 0.547371 0.340592
vt 0.379494 0.739633
vt 0.283193 0.737169
vt 0.687272 0.871425
vt 0.802988 0.029963
vt 0.683158 0.503398
vt 0.008625 0.483170
vt 0.948481 0.375032
vt 0.414918 0.483169
vt 0.622841 0.819592
vt 0.801708 0.375032
vt 0.546643 0.520984
vt 0.137142 0.483170
vt 0.948481 0.516145
vt 0.397668 0.707741
vt 0.247629 0.742252
vt 0.820239 0.008625
vt 0.708260 0.375367
vt 0.113872 0.826580
vt 0.552255 0.814613
vt 0.502594 0.816438
vt 0.894499 0.832357
vt 0.689145 0.531219
vt 0.171116 0.880033
vt 0.984991 0.661860
vt 0.968728 0.008625
vt 0.991375 0.008640
vt 0.881654 0.307300
vt 0.881654 0.304380
vt 0.883710 0.302319
vt 0.888673 0.304394
vt 0.886617 0.309374
vt 0.971096 0.298024
vt 0.694291 0.893394
vt 0.694291 0.896313
vt 0.692236 0.898382
vt 0.687272 0.896328
vt 0.689328 0.891339
vt 0.430420 0.874006
vt 0.473449 0.873862
vt 0.404957 0.874179
vt 0.833662 0.304461
vt 0.831099 0.308010
vt 0.826951 0.309374
vt 0.820239 0.304499
vt 0.820239 0.300121
vt 0.822803 0.296572
vt 0.831099 0.296549
vt 0.205107 0.882457
vt 0.831144 0.339384
vt 0.826979 0.340732
vt 0.822814 0.339385
vt 0.820239 0.331500
vt 0.822814 0.327973
vt 0.826979 0.326625
vt 0.833719 0.331498
vt 0.808621 0.836020
vt 0.816603 0.832941
vt 0.821084 0.836020
vt 0.809641 0.863728
vt 0.818995 0.863728
vt 0.503882 0.759781
vt 0.855898 0.296234
vt 0.516344 0.759762
vt 0.852588 0.327478
vt 0.859250 0.327152
vt 0.863743 0.330246
vt 0.452841 0.873862
vt 0.884950 0.327152
vt 0.895156 0.662572
vt 0.659526 0.964073
vt 0.913687 0.155462
vt 0.640091 0.796276
vt 0.223664 0.871004
vt 0.247589 0.871004
vt 0.844777 0.662572
vt 0.962345 0.811452
vt 0.913687 0.320419
vt 0.808092 0.814981
s 1
f 37/1/1 2/2/2 31/3/3
f 51/4/4 30/5/5 45/6/6
f 22/7/7 36/8/8 50/9/9
f 10/10/10 16/11/11 3/12/12
f 23/13/13 44/14/14 17/15/15
f 1/16/16 5/17/17 7/18/18
f 2/2/2 5/19/19 4/20/20
f 3/21/12 5/19/21 6/22/22
f 8/23/23 12/24/24 14/25/25
f 9/26/26 12/27/27 11/28/28
f 10/29/10 12/24/29 13/30/30
f 15/31/31 19/32/32 21/33/33
f 16/11/11 19/34/34 18/35/35
f 17/36/15 19/34/36 20/37/37
f 22/7/7 26/38/38 28/39/39
f 23/40/13 26/41/40 25/42/41
f 24/43/42 26/41/43 27/44/44
f 29/45/45 33/46/46 35/47/47
f 30/5/5 33/48/48 32/49/49
f 31/50/3 33/48/50 34/51/51
f 36/8/8 40/52/52 42/53/53
f 37/54/1 40/55/54 39/56/55
f 38/57/56 40/55/57 41/58/58
f 43/59/59 47/60/60 49/61/61
f 44/14/14 47/62/62 46/63/63
f 45/64/6 47/62/64 48/65/65
f 50/9/9 54/66/66 56/67/67
f 51/68/4 54/69/68 53/70/69
f 52/71/70 54/69/71 55/72/72
f 1/16/16 18/73/73 15/31/31
f 7/74/74 16/11/11 18/35/35
f 8/23/23 6/22/75 2/2/2
f 14/25/76 3/21/12 6/22/22
f 22/7/7 13/75/77 9/26/26
f 28/76/78 10/29/10 13/30/30
f 17/36/15 27/44/79 23/40/13
f 20/37/80 24/43/42 27/44/44
f 15/31/31 46/77/81 43/59/59
f 21/78/82 44/14/14 46/63/63
f 50/9/9 25/79/83 22/7/7
f 56/80/84 23/13/13 25/81/41
f 45/64/6 55/72/85 51/68/4
f 48/65/86 52/71/70 55/72/72
f 43/59/59 32/82/87 29/45/45
f 49/83/88 30/5/5 32/49/49
f 36/8/8 53/84/89 50/9/9
f 42/85/90 51/4/4 53/86/69
f 31/50/3 41/58/91 37/54/1
f 34/51/92 38/57/56 41/58/58
f 29/45/45 4/87/93 1/16/16
f 35/88/94 2/2/2 4/20/20
f 9/26/26 39/89/95 36/8/8
f 11/90/96 37/1/1 39/91/55
f 43/59/59 1/16/16 15/31/31
f 58/92/97 59/93/97 57/94/97
f 60/95/98 63/96/98 59/97/98
f 64/98/99 61/99/99 63/100/99
f 62/101/100 57/102/100 61/103/100
f 63/104/101 57/105/101 59/106/101
f 60/107/102 62/108/102 64/109/102
f 66/110/97 67/111/97 65/112/97
f 68/113/98 71/114/98 67/115/98
f 72/116/99 69/117/99 71/118/99
f 70/119/100 65/120/100 69/121/100
f 71/122/101 65/123/101 67/124/101
f 68/125/102 70/126/102 72/127/102
f 109/128/1 74/129/2 103/130/3
f 123/131/4 102/132/5 117/133/6
f 94/134/7 108/135/8 122/136/9
f 82/137/10 88/138/11 75/139/12
f 95/140/13 116/141/14 89/142/15
f 73/143/16 77/144/17 79/145/18
f 74/129/2 77/146/19 76/147/20
f 75/148/12 77/146/21 78/149/22
f 80/150/23 84/151/24 86/152/25
f 81/153/26 84/154/27 83/155/28
f 82/156/10 84/151/29 85/157/30
f 87/158/31 91/159/32 93/160/33
f 88/138/11 91/161/34 90/162/35
f 89/163/15 91/161/36 92/164/37
f 94/134/7 98/165/38 100/166/39
f 95/167/13 98/168/40 97/169/41
f 96/170/42 98/168/43 99/171/44
f 101/172/45 105/173/46 107/174/47
f 102/132/5 105/175/48 104/176/49
f 103/177/3 105/175/50 106/178/51
f 108/135/8 112/179/52 114/180/53
f 109/181/1 112/182/54 111/183/55
f 110/184/56 112/182/57 113/185/58
f 115/186/59 119/187/60 121/188/61
f 116/141/14 119/189/62 118/190/63
f 117/191/6 119/189/64 120/192/65
f 122/136/9 126/193/66 128/194/67
f 123/195/4 126/196/68 125/197/69
f 124/198/70 126/196/71 127/199/72
f 73/143/16 90/200/73 87/158/31
f 79/201/74 88/138/11 90/162/35
f 80/150/23 78/149/75 74/129/2
f 86/152/76 75/148/12 78/149/22
f 94/134/7 85/202/77 81/153/26
f 100/203/78 82/156/10 85/157/30
f 89/163/15 99/171/79 95/167/13
f 92/164/80 96/170/42 99/171/44
f 87/158/31 118/204/81 115/186/59
f 93/205/82 116/141/14 118/190/63
f 122/136/9 97/206/83 94/134/7
f 128/207/84 95/140/13 97/208/41
f 117/191/6 127/199/85 123/195/4
f 120/192/86 124/198/70 127/199/72
f 115/186/59 104/209/87 101/172/45
f 121/210/88 102/132/5 104/176/49
f 108/135/8 125/211/89 122/136/9
f 114/212/90 123/131/4 125/213/69
f 103/177/3 113/185/91 109/181/1
f 106/178/92 110/184/56 113/185/58
f 101/172/45 76/214/93 73/143/16
f 107/215/94 74/129/2 76/147/20
f 81/153/26 111/216/95 108/135/8
f 83/217/96 109/128/1 111/218/55
f 115/186/59 73/143/16 87/158/31
f 130/219/103 131/220/103 129/221/103
f 132/222/104 133/223/104 131/220/104
f 134/224/105 135/225/105 133/226/105
f 136/227/106 137/228/106 135/225/106
f 138/229/107 139/230/107 137/231/107
f 140/232/108 141/233/108 139/230/108
f 142/234/102 138/235/102 134/236/102
f 142/237/109 143/238/109 141/239/109
f 144/240/110 129/241/110 143/238/110
f 135/242/101 139/243/101 143/244/101
f 146/245/98 147/246/111 145/247/98
f 148/248/111 149/249/112 147/246/111
f 150/250/112 151/251/113 149/252/112
f 152/253/113 153/254/114 151/251/113
f 154/255/114 155/256/100 153/254/114
f 156/257/100 157/258/115 155/259/100
f 158/260/115 159/261/116 157/258/115
f 160/262/116 161/263/117 159/264/116
f 162/265/102 154/266/102 150/267/102
f 162/268/117 163/269/118 161/263/117
f 164/270/118 145/271/98 163/269/118
f 151/272/101 159/273/101 163/274/101
f 246/275/119 167/276/120 168/277/121
f 249/278/122 173/279/123 250/280/124
f 166/281/98 171/282/125 248/283/126
f 246/275/119 169/284/127 247/285/128
f 165/286/129 217/287/102 167/276/120
f 216/288/101 250/280/124 173/279/123
f 248/283/126 172/289/130 249/290/122
f 166/281/98 169/291/127 170/292/131
f 171/282/125 177/293/132 178/294/133
f 168/295/121 176/296/134 169/291/127
f 167/276/120 217/287/102 174/297/135
f 216/288/101 173/279/123 180/298/136
f 171/282/125 179/299/137 172/289/130
f 170/292/131 176/296/134 177/293/132
f 167/276/120 175/300/138 168/277/121
f 172/301/130 180/298/136 173/279/123
f 216/288/101 180/298/136 187/302/139
f 178/294/133 186/303/140 179/299/137
f 176/296/134 184/304/99 177/293/132
f 175/300/138 181/305/141 182/306/142
f 179/307/137 187/302/139 180/298/136
f 177/293/132 185/308/143 178/294/133
f 175/300/138 183/309/144 176/310/134
f 174/297/135 217/287/102 181/305/141
f 183/311/144 191/312/145 184/313/99
f 181/305/141 189/314/146 182/306/142
f 186/315/140 194/316/147 187/302/139
f 185/317/143 191/312/145 192/318/148
f 183/311/144 189/319/146 190/320/149
f 181/305/141 217/287/102 188/321/150
f 216/288/101 187/302/139 194/316/147
f 185/317/143 193/322/151 186/323/140
f 193/324/151 201/325/152 194/316/147
f 192/318/148 198/326/153 199/327/154
f 190/320/149 196/328/155 197/329/156
f 188/321/150 217/287/102 195/330/157
f 216/288/101 194/316/147 201/325/152
f 192/318/148 200/331/158 193/322/151
f 190/320/149 198/326/153 191/312/145
f 188/321/150 196/332/155 189/314/146
f 196/328/155 204/333/159 197/329/156
f 195/330/157 217/287/102 202/334/160
f 216/288/101 201/325/152 208/335/161
f 199/327/154 207/336/162 200/331/158
f 197/329/156 205/337/100 198/326/153
f 195/330/157 203/338/163 196/332/155
f 200/339/158 208/335/161 201/325/152
f 198/326/153 206/340/164 199/327/154
f 216/288/101 208/335/161 215/341/165
f 207/342/162 213/343/166 214/344/167
f 204/345/159 212/346/168 205/347/100
f 202/334/160 210/348/169 203/338/163
f 208/335/161 214/344/167 215/341/165
f 205/347/100 213/349/166 206/350/164
f 203/351/163 211/352/170 204/345/159
f 202/334/160 217/287/102 209/353/171
f 209/353/171 219/354/172 210/348/169
f 215/341/165 223/355/173 224/356/174
f 212/346/168 222/357/175 213/349/166
f 211/352/170 219/358/172 220/359/176
f 209/353/171 217/287/102 218/360/177
f 216/288/101 215/341/165 224/356/174
f 213/349/166 223/361/173 214/362/167
f 212/346/168 220/359/176 221/363/178
f 223/355/173 231/364/179 224/356/174
f 221/363/178 229/365/180 222/357/175
f 220/359/176 226/366/181 227/367/182
f 218/360/177 217/287/102 225/368/183
f 216/288/101 224/356/174 231/364/179
f 222/369/175 230/370/184 223/355/173
f 220/359/176 228/371/97 221/363/178
f 219/354/172 225/368/183 226/372/181
f 225/368/183 217/287/102 232/373/185
f 216/288/101 231/364/179 238/374/186
f 229/375/180 237/376/187 230/377/184
f 227/378/182 235/379/188 228/380/97
f 225/368/183 233/381/189 226/372/181
f 230/370/184 238/374/186 231/364/179
f 228/380/97 236/382/190 229/375/180
f 227/378/182 233/383/189 234/384/191
f 237/376/187 243/385/192 244/386/193
f 235/379/188 241/387/194 242/388/195
f 232/373/185 240/389/196 233/381/189
f 237/390/187 245/391/197 238/374/186
f 235/379/188 243/385/192 236/382/190
f 233/383/189 241/387/194 234/384/191
f 232/373/185 217/287/102 239/392/198
f 216/288/101 238/374/186 245/391/197
f 244/393/193 250/280/124 245/391/197
f 242/388/195 248/394/126 243/385/192
f 241/395/194 246/275/119 247/285/128
f 239/392/198 217/287/102 165/286/129
f 216/288/101 245/391/197 250/280/124
f 243/385/192 249/396/122 244/386/193
f 241/387/194 166/397/98 242/388/195
f 239/392/198 246/275/119 240/389/196
f 257/398/199 255/399/199 256/400/200
f 258/401/199 255/399/199 257/398/199
f 258/401/199 254/402/199 255/399/199
f 251/403/199 254/402/199 258/401/199
f 251/403/199 253/404/199 254/402/199
f 252/405/199 253/404/199 251/403/199
f 263/406/201 265/407/201 264/408/201
f 263/406/201 266/409/201 265/407/201
f 262/410/201 266/409/201 263/406/201
f 262/410/201 259/411/201 266/409/201
f 261/412/201 259/411/201 262/410/201
f 261/412/201 260/413/201 259/411/201
f 267/414/202 282/415/203 274/416/204
f 276/417/205 267/418/206 268/419/207
f 277/420/208 268/419/209 269/421/210
f 278/422/211 269/423/212 270/424/213
f 279/425/214 270/426/215 271/427/215
f 272/428/216 279/429/217 271/430/218
f 273/431/219 280/432/220 272/428/221
f 274/433/222 281/434/223 273/435/224
f 275/436/225 290/437/226 282/415/203
f 284/438/227 275/439/228 276/417/205
f 285/440/229 276/417/230 277/420/208
f 286/441/231 277/442/232 278/422/211
f 287/443/233 278/444/234 279/425/214
f 280/432/235 287/445/236 279/429/217
f 281/446/237 288/447/238 280/432/220
f 282/448/239 289/449/240 281/434/223
f 283/450/241 298/451/242 290/437/226
f 292/452/243 283/453/227 284/438/227
f 293/454/244 284/438/229 285/440/229
f 294/455/245 285/456/231 286/441/231
f 295/457/246 286/458/233 287/443/233
f 288/447/236 295/459/247 287/445/236
f 289/460/238 296/461/248 288/447/238
f 290/462/240 297/463/249 289/449/240
f 291/464/250 306/465/251 298/451/242
f 300/466/252 291/467/253 292/452/243
f 301/468/254 292/452/255 293/454/244
f 302/469/256 293/470/257 294/455/245
f 303/471/258 294/472/259 295/457/246
f 296/461/260 303/473/261 295/459/247
f 297/474/262 304/475/263 296/461/248
f 298/476/264 305/477/265 297/463/249
f 299/478/266 314/479/267 306/480/251
f 308/481/268 299/482/269 300/466/252
f 309/483/270 300/466/271 301/468/254
f 310/484/272 301/485/273 302/469/256
f 311/486/274 302/469/275 303/487/258
f 304/475/276 311/488/277 303/473/261
f 305/489/278 312/490/279 304/475/263
f 306/480/280 313/491/281 305/477/265
f 315/492/282 314/479/267 307/493/283
f 308/481/268 315/494/284 307/495/285
f 309/483/270 316/496/286 308/481/287
f 310/484/272 317/497/288 309/498/289
f 311/486/274 318/499/290 310/484/291
f 320/500/292 311/488/277 312/490/293
f 321/501/294 312/490/279 313/502/295
f 322/503/296 313/491/281 314/479/297
f 315/492/282 330/504/298 322/503/282
f 324/505/299 315/494/284 316/496/284
f 325/506/300 316/496/286 317/507/301
f 326/508/302 317/497/288 318/499/288
f 327/509/303 318/499/290 319/510/290
f 320/500/292 327/511/304 319/512/305
f 321/501/294 328/513/306 320/500/294
f 322/503/296 329/514/307 321/515/308
f 331/516/309 330/504/298 323/517/310
f 324/505/299 331/518/311 323/519/312
f 325/506/300 332/520/313 324/505/300
f 326/508/302 333/521/314 325/522/315
f 327/509/303 334/523/316 326/508/317
f 336/524/318 327/511/304 328/513/304
f 337/525/319 328/513/306 329/526/320
f 338/527/321 329/514/307 330/504/322
f 339/528/323 338/527/324 331/516/309
f 332/520/325 339/529/326 331/518/311
f 333/530/327 340/531/328 332/520/313
f 334/523/329 341/532/330 333/521/314
f 335/533/331 342/534/332 334/523/316
f 344/535/333 335/536/334 336/524/318
f 345/537/335 336/524/336 337/525/319
f 346/538/337 337/539/338 338/527/321
f 347/540/339 346/538/340 339/528/323
f 340/531/341 347/541/342 339/529/326
f 341/542/343 348/543/344 340/531/328
f 342/534/345 349/544/346 341/532/330
f 343/545/347 350/546/348 342/534/332
f 352/547/349 343/548/350 344/535/333
f 353/549/351 344/535/352 345/537/335
f 354/550/353 345/551/354 346/538/337
f 355/552/355 354/550/339 347/540/339
f 348/543/342 355/553/356 347/541/342
f 349/554/344 356/555/357 348/543/344
f 350/546/346 357/556/358 349/544/346
f 351/557/348 358/558/359 350/546/348
f 360/559/360 351/560/349 352/547/349
f 361/561/361 352/547/351 353/549/351
f 362/562/362 353/563/353 354/550/353
f 363/564/363 362/562/355 355/552/355
f 356/555/364 363/565/365 355/553/356
f 357/566/366 364/567/367 356/555/357
f 358/558/358 365/568/368 357/556/358
f 359/569/359 366/570/369 358/558/359
f 368/571/370 359/572/360 360/559/360
f 369/573/371 360/559/372 361/561/361
f 370/574/373 361/575/374 362/562/362
f 377/576/199 375/577/199 376/578/199
f 378/579/199 375/577/199 377/576/199
f 378/579/199 374/580/199 375/577/199
f 371/581/199 374/580/199 378/579/199
f 371/581/199 373/582/199 374/580/199
f 372/583/199 373/582/199 371/581/199
f 383/584/201 385/585/201 384/586/201
f 383/584/201 386/587/201 385/585/201
f 382/588/201 386/587/201 383/584/201
f 382/588/201 379/589/201 386/587/201
f 381/590/201 379/589/201 382/588/201
f 381/590/201 380/591/201 379/589/201
f 387/592/202 402/593/203 394/594/204
f 396/595/205 387/596/206 388/597/207
f 397/598/208 388/597/209 389/599/210
f 398/600/211 389/601/212 390/602/213
f 399/603/214 390/604/215 391/605/215
f 392/606/216 399/607/217 391/608/218
f 393/609/219 400/610/220 392/606/221
f 394/611/222 401/612/223 393/613/224
f 395/614/225 410/615/226 402/593/203
f 404/616/227 395/617/228 396/595/205
f 405/618/229 396/595/230 397/598/208
f 406/619/231 397/620/232 398/600/211
f 407/621/233 398/622/234 399/603/214
f 400/610/235 407/623/236 399/607/217
f 401/624/237 408/625/238 400/610/220
f 402/626/239 409/627/240 401/612/223
f 403/628/241 418/629/242 410/615/226
f 412/630/243 403/631/227 404/616/227
f 413/632/244 404/616/229 405/618/229
f 414/633/245 405/634/231 406/619/231
f 415/635/246 406/636/233 407/621/233
f 408/625/236 415/637/247 407/623/236
f 409/638/238 416/639/248 408/625/238
f 410/640/240 417/641/249 409/627/240
f 411/642/250 426/643/251 418/629/242
f 420/644/252 411/645/253 412/630/243
f 421/646/254 412/630/255 413/632/244
f 422/647/256 413/648/257 414/633/245
f 423/649/258 414/650/259 415/635/246
f 416/639/260 423/651/261 415/637/247
f 417/652/262 424/653/263 416/639/248
f 418/654/264 425/655/265 417/641/249
f 419/656/266 434/657/267 426/658/251
f 428/659/268 419/660/269 420/644/252
f 429/661/270 420/644/271 421/646/254
f 430/662/272 421/663/273 422/647/256
f 431/664/274 422/647/275 423/665/258
f 424/653/276 431/666/277 423/651/261
f 425/667/278 432/668/279 424/653/263
f 426/658/280 433/669/281 425/655/265
f 435/670/282 434/657/267 427/671/283
f 428/659/268 435/672/284 427/673/285
f 429/661/270 436/674/286 428/659/287
f 430/662/272 437/675/288 429/676/289
f 431/664/274 438/677/290 430/662/291
f 440/678/292 431/666/277 432/668/293
f 441/679/294 432/668/279 433/680/295
f 442/681/296 433/669/281 434/657/297
f 435/670/282 450/682/298 442/681/282
f 444/683/299 435/672/284 436/674/284
f 445/684/300 436/674/286 437/685/301
f 446/686/302 437/675/288 438/677/288
f 447/687/303 438/677/290 439/688/290
f 440/678/292 447/689/304 439/690/305
f 441/679/294 448/691/306 440/678/294
f 442/681/296 449/692/307 441/693/308
f 451/694/309 450/682/298 443/695/310
f 444/683/299 451/696/311 443/697/312
f 445/684/300 452/698/313 444/683/300
f 446/686/302 453/699/314 445/700/315
f 447/687/303 454/701/316 446/686/317
f 456/702/318 447/689/304 448/691/304
f 457/703/319 448/691/306 449/704/320
f 458/705/321 449/692/307 450/682/322
f 459/706/323 458/705/324 451/694/309
f 452/698/325 459/707/326 451/696/311
f 453/708/327 460/709/328 452/698/313
f 454/701/329 461/710/330 453/699/314
f 455/711/331 462/712/332 454/701/316
f 464/713/333 455/714/334 456/702/318
f 465/715/335 456/702/336 457/703/319
f 466/716/337 457/717/338 458/705/321
f 467/718/339 466/716/340 459/706/323
f 460/709/341 467/719/342 459/707/326
f 461/720/343 468/721/344 460/709/328
f 462/712/345 469/722/346 461/710/330
f 463/723/347 470/724/348 462/712/332
f 472/725/349 463/726/350 464/713/333
f 473/727/351 464/713/352 465/715/335
f 474/728/353 465/729/354 466/716/337
f 475/730/355 474/728/339 467/718/339
f 468/721/342 475/731/356 467/719/342
f 469/732/344 476/733/357 468/721/344
f 470/724/346 477/734/358 469/722/346
f 471/735/348 478/736/359 470/724/348
f 480/737/360 471/738/349 472/725/349
f 481/739/361 472/725/351 473/727/351
f 482/740/362 473/741/353 474/728/353
f 483/742/363 482/740/355 475/730/355
f 476/733/364 483/743/365 475/731/356
f 477/744/366 484/745/367 476/733/357
f 478/736/358 485/746/368 477/734/358
f 479/747/359 486/748/369 478/736/359
f 488/749/370 479/750/360 480/737/360
f 489/751/371 480/737/372 481/739/361
f 490/752/373 481/753/374 482/740/362
f 37/1/1 8/23/23 2/2/2
f 51/4/4 38/57/56 30/5/5
f 22/7/7 9/26/26 36/8/8
f 10/10/10 24/43/42 16/11/11
f 23/13/13 52/71/70 44/14/14
f 1/16/16 4/87/93 5/17/17
f 2/2/2 6/22/75 5/19/19
f 3/21/12 7/754/74 5/19/21
f 8/23/23 11/90/96 12/24/24
f 9/26/26 13/75/77 12/27/27
f 10/29/10 14/25/76 12/24/29
f 15/31/31 18/73/73 19/32/32
f 16/11/11 20/37/80 19/34/34
f 17/36/15 21/755/82 19/34/36
f 22/7/7 25/79/83 26/38/38
f 23/40/13 27/44/79 26/41/40
f 24/43/42 28/756/78 26/41/43
f 29/45/45 32/82/87 33/46/46
f 30/5/5 34/51/92 33/48/48
f 31/50/3 35/757/94 33/48/50
f 36/8/8 39/89/95 40/52/52
f 37/54/1 41/58/91 40/55/54
f 38/57/56 42/85/90 40/55/57
f 43/59/59 46/77/81 47/60/60
f 44/14/14 48/65/86 47/62/62
f 45/64/6 49/758/88 47/62/64
f 50/9/9 53/84/89 54/66/66
f 51/68/4 55/72/85 54/69/68
f 52/71/70 56/80/84 54/69/71
f 1/16/16 7/18/18 18/73/73
f 7/74/74 3/12/12 16/11/11
f 8/23/23 14/25/25 6/22/75
f 14/25/76 10/29/10 3/21/12
f 22/7/7 28/39/39 13/75/77
f 28/76/78 24/759/42 10/29/10
f 17/36/15 20/37/37 27/44/79
f 20/37/80 16/11/11 24/43/42
f 15/31/31 21/33/33 46/77/81
f 21/78/82 17/15/15 44/14/14
f 50/9/9 56/67/67 25/79/83
f 56/80/84 52/71/70 23/13/13
f 45/64/6 48/65/65 55/72/85
f 48/65/86 44/14/14 52/71/70
f 43/59/59 49/61/61 32/82/87
f 49/83/88 45/6/6 30/5/5
f 36/8/8 42/53/53 53/84/89
f 42/85/90 38/57/56 51/4/4
f 31/50/3 34/51/51 41/58/91
f 34/51/92 30/5/5 38/57/56
f 29/45/45 35/47/47 4/87/93
f 35/88/94 31/3/3 2/2/2
f 9/26/26 11/28/28 39/89/95
f 11/90/96 8/23/23 37/1/1
f 43/59/59 29/45/45 1/16/16
f 58/92/97 60/760/97 59/93/97
f 60/95/98 64/761/98 63/96/98
f 64/98/99 62/762/99 61/99/99
f 62/101/100 58/763/100 57/102/100
f 63/104/101 61/764/101 57/105/101
f 60/107/102 58/765/102 62/108/102
f 66/110/97 68/766/97 67/111/97
f 68/113/98 72/767/98 71/114/98
f 72/116/99 70/768/99 69/117/99
f 70/119/100 66/769/100 65/120/100
f 71/122/101 69/770/101 65/123/101
f 68/125/102 66/771/102 70/126/102
f 109/128/1 80/150/23 74/129/2
f 123/131/4 110/184/56 102/132/5
f 94/134/7 81/153/26 108/135/8
f 82/137/10 96/170/42 88/138/11
f 95/140/13 124/198/70 116/141/14
f 73/143/16 76/214/93 77/144/17
f 74/129/2 78/149/75 77/146/19
f 75/148/12 79/772/74 77/146/21
f 80/150/23 83/217/96 84/151/24
f 81/153/26 85/202/77 84/154/27
f 82/156/10 86/152/76 84/151/29
f 87/158/31 90/200/73 91/159/32
f 88/138/11 92/164/80 91/161/34
f 89/163/15 93/773/82 91/161/36
f 94/134/7 97/206/83 98/165/38
f 95/167/13 99/171/79 98/168/40
f 96/170/42 100/774/78 98/168/43
f 101/172/45 104/209/87 105/173/46
f 102/132/5 106/178/92 105/175/48
f 103/177/3 107/775/94 105/175/50
f 108/135/8 111/216/95 112/179/52
f 109/181/1 113/185/91 112/182/54
f 110/184/56 114/212/90 112/182/57
f 115/186/59 118/204/81 119/187/60
f 116/141/14 120/192/86 119/189/62
f 117/191/6 121/776/88 119/189/64
f 122/136/9 125/211/89 126/193/66
f 123/195/4 127/199/85 126/196/68
f 124/198/70 128/207/84 126/196/71
f 73/143/16 79/145/18 90/200/73
f 79/201/74 75/139/12 88/138/11
f 80/150/23 86/152/25 78/149/75
f 86/152/76 82/156/10 75/148/12
f 94/134/7 100/166/39 85/202/77
f 100/203/78 96/777/42 82/156/10
f 89/163/15 92/164/37 99/171/79
f 92/164/80 88/138/11 96/170/42
f 87/158/31 93/160/33 118/204/81
f 93/205/82 89/142/15 116/141/14
f 122/136/9 128/194/67 97/206/83
f 128/207/84 124/198/70 95/140/13
f 117/191/6 120/192/65 127/199/85
f 120/192/86 116/141/14 124/198/70
f 115/186/59 121/188/61 104/209/87
f 121/210/88 117/133/6 102/132/5
f 108/135/8 114/180/53 125/211/89
f 114/212/90 110/184/56 123/131/4
f 103/177/3 106/178/51 113/185/91
f 106/178/92 102/132/5 110/184/56
f 101/172/45 107/174/47 76/214/93
f 107/215/94 103/130/3 74/129/2
f 81/153/26 83/155/28 111/216/95
f 83/217/96 80/150/23 109/128/1
f 115/186/59 101/172/45 73/143/16
f 130/219/103 132/222/103 131/220/103
f 132/222/104 134/778/104 133/223/104
f 134/224/105 136/227/105 135/225/105
f 136/227/106 138/779/106 137/228/106
f 138/229/107 140/232/107 139/230/107
f 140/232/108 142/780/108 141/233/108
f 134/236/102 132/781/102 130/782/102
f 130/782/102 144/783/102 142/234/102
f 142/234/102 140/784/102 138/235/102
f 138/235/102 136/785/102 134/236/102
f 134/236/102 130/782/102 142/234/102
f 142/237/109 144/240/109 143/238/109
f 144/240/110 130/786/110 129/241/110
f 143/244/101 129/787/101 131/788/101
f 131/788/101 133/789/101 135/242/101
f 135/242/101 137/790/101 139/243/101
f 139/243/101 141/791/101 143/244/101
f 143/244/101 131/788/101 135/242/101
f 146/245/98 148/248/111 147/246/111
f 148/248/111 150/792/112 149/249/112
f 150/250/112 152/253/113 151/251/113
f 152/253/113 154/255/114 153/254/114
f 154/255/114 156/793/100 155/256/100
f 156/257/100 158/260/115 157/258/115
f 158/260/115 160/794/116 159/261/116
f 160/262/116 162/268/117 161/263/117
f 150/267/102 148/795/102 146/796/102
f 146/796/102 164/797/102 162/265/102
f 162/265/102 160/798/102 158/799/102
f 158/799/102 156/800/102 154/266/102
f 154/266/102 152/801/102 150/267/102
f 150/267/102 146/796/102 162/265/102
f 162/265/102 158/799/102 154/266/102
f 162/268/117 164/270/118 163/269/118
f 164/270/118 146/802/98 145/271/98
f 163/274/101 145/803/101 147/804/101
f 147/804/101 149/805/101 151/272/101
f 151/272/101 153/806/101 155/807/101
f 155/807/101 157/808/101 159/273/101
f 159/273/101 161/809/101 163/274/101
f 163/274/101 147/804/101 151/272/101
f 151/272/101 155/807/101 159/273/101
f 246/275/119 165/286/129 167/276/120
f 249/278/122 172/301/130 173/279/123
f 166/281/98 170/292/131 171/282/125
f 246/275/119 168/277/121 169/284/127
f 248/283/126 171/282/125 172/289/130
f 166/281/98 247/810/128 169/291/127
f 171/282/125 170/292/131 177/293/132
f 168/295/121 175/811/138 176/296/134
f 171/282/125 178/294/133 179/299/137
f 170/292/131 169/291/127 176/296/134
f 167/276/120 174/297/135 175/300/138
f 172/301/130 179/307/137 180/298/136
f 178/294/133 185/308/143 186/303/140
f 176/296/134 183/812/144 184/304/99
f 175/300/138 174/297/135 181/305/141
f 179/307/137 186/315/140 187/302/139
f 177/293/132 184/304/99 185/308/143
f 175/300/138 182/306/142 183/309/144
f 183/311/144 190/320/149 191/312/145
f 181/305/141 188/321/150 189/314/146
f 186/315/140 193/324/151 194/316/147
f 185/317/143 184/313/99 191/312/145
f 183/311/144 182/813/142 189/319/146
f 185/317/143 192/318/148 193/322/151
f 193/324/151 200/339/158 201/325/152
f 192/318/148 191/312/145 198/326/153
f 190/320/149 189/319/146 196/328/155
f 192/318/148 199/327/154 200/331/158
f 190/320/149 197/329/156 198/326/153
f 188/321/150 195/330/157 196/332/155
f 196/328/155 203/814/163 204/333/159
f 199/327/154 206/340/164 207/336/162
f 197/329/156 204/333/159 205/337/100
f 195/330/157 202/334/160 203/338/163
f 200/339/158 207/342/162 208/335/161
f 198/326/153 205/337/100 206/340/164
f 207/342/162 206/815/164 213/343/166
f 204/345/159 211/352/170 212/346/168
f 202/334/160 209/353/171 210/348/169
f 208/335/161 207/342/162 214/344/167
f 205/347/100 212/346/168 213/349/166
f 203/351/163 210/816/169 211/352/170
f 209/353/171 218/360/177 219/354/172
f 215/341/165 214/344/167 223/355/173
f 212/346/168 221/363/178 222/357/175
f 211/352/170 210/816/169 219/358/172
f 213/349/166 222/357/175 223/361/173
f 212/346/168 211/352/170 220/359/176
f 223/355/173 230/370/184 231/364/179
f 221/363/178 228/371/97 229/365/180
f 220/359/176 219/358/172 226/366/181
f 222/369/175 229/817/180 230/370/184
f 220/359/176 227/367/182 228/371/97
f 219/354/172 218/360/177 225/368/183
f 229/375/180 236/382/190 237/376/187
f 227/378/182 234/384/191 235/379/188
f 225/368/183 232/373/185 233/381/189
f 230/370/184 237/390/187 238/374/186
f 228/380/97 235/379/188 236/382/190
f 227/378/182 226/818/181 233/383/189
f 237/376/187 236/382/190 243/385/192
f 235/379/188 234/384/191 241/387/194
f 232/373/185 239/392/198 240/389/196
f 237/390/187 244/393/193 245/391/197
f 235/379/188 242/388/195 243/385/192
f 233/383/189 240/819/196 241/387/194
f 244/393/193 249/278/122 250/280/124
f 242/388/195 166/397/98 248/394/126
f 241/395/194 240/389/196 246/275/119
f 243/385/192 248/394/126 249/396/122
f 241/387/194 247/820/128 166/397/98
f 239/392/198 165/286/129 246/275/119
f 267/414/202 275/436/225 282/415/203
f 276/417/205 275/439/228 267/418/206
f 277/420/208 276/417/230 268/419/209
f 278/422/211 277/442/232 269/423/212
f 279/425/214 278/444/234 270/426/215
f 272/428/216 280/432/235 279/429/217
f 273/431/219 281/446/237 280/432/220
f 274/433/222 282/448/239 281/434/223
f 275/436/225 283/450/241 290/437/226
f 284/438/227 283/453/227 275/439/228
f 285/440/229 284/438/229 276/417/230
f 286/441/231 285/456/231 277/442/232
f 287/443/233 286/458/233 278/444/234
f 280/432/235 288/447/236 287/445/236
f 281/446/237 289/460/238 288/447/238
f 282/448/239 290/462/240 289/449/240
f 283/450/241 291/464/250 298/451/242
f 292/452/243 291/467/253 283/453/227
f 293/454/244 292/452/255 284/438/229
f 294/455/245 293/470/257 285/456/231
f 295/457/246 294/472/259 286/458/233
f 288/447/236 296/461/260 295/459/247
f 289/460/238 297/474/262 296/461/248
f 290/462/240 298/476/264 297/463/249
f 291/464/250 299/821/266 306/465/251
f 300/466/252 299/482/269 291/467/253
f 301/468/254 300/466/271 292/452/255
f 302/469/256 301/485/273 293/470/257
f 303/471/258 302/822/275 294/472/259
f 296/461/260 304/475/276 303/473/261
f 297/474/262 305/489/278 304/475/263
f 298/476/264 306/480/280 305/477/265
f 299/478/266 307/493/283 314/479/267
f 308/481/268 307/495/285 299/482/269
f 309/483/270 308/481/287 300/466/271
f 310/484/272 309/498/289 301/485/273
f 311/486/274 310/484/291 302/469/275
f 304/475/276 312/490/293 311/488/277
f 305/489/278 313/502/295 312/490/279
f 306/480/280 314/479/297 313/491/281
f 315/492/282 322/503/282 314/479/267
f 308/481/268 316/496/284 315/494/284
f 309/483/270 317/507/301 316/496/286
f 310/484/272 318/499/288 317/497/288
f 311/486/274 319/510/290 318/499/290
f 320/500/292 319/512/305 311/488/277
f 321/501/294 320/500/294 312/490/279
f 322/503/296 321/515/308 313/491/281
f 315/492/282 323/517/310 330/504/298
f 324/505/299 323/519/312 315/494/284
f 325/506/300 324/505/300 316/496/286
f 326/508/302 325/522/315 317/497/288
f 327/509/303 326/508/317 318/499/290
f 320/500/292 328/513/304 327/511/304
f 321/501/294 329/526/320 328/513/306
f 322/503/296 330/504/322 329/514/307
f 331/516/309 338/527/324 330/504/298
f 324/505/299 332/520/325 331/518/311
f 325/506/300 333/530/327 332/520/313
f 326/508/302 334/523/329 333/521/314
f 327/509/303 335/533/331 334/523/316
f 336/524/318 335/536/334 327/511/304
f 337/525/319 336/524/336 328/513/306
f 338/527/321 337/539/338 329/514/307
f 339/528/323 346/538/340 338/527/324
f 332/520/325 340/531/341 339/529/326
f 333/530/327 341/542/343 340/531/328
f 334/523/329 342/534/345 341/532/330
f 335/533/331 343/545/347 342/534/332
f 344/535/333 343/548/350 335/536/334
f 345/537/335 344/535/352 336/524/336
f 346/538/337 345/551/354 337/539/338
f 347/540/339 354/550/339 346/538/340
f 340/531/341 348/543/342 347/541/342
f 341/542/343 349/554/344 348/543/344
f 342/534/345 350/546/346 349/544/346
f 343/545/347 351/557/348 350/546/348
f 352/547/349 351/560/349 343/548/350
f 353/549/351 352/547/351 344/535/352
f 354/550/353 353/563/353 345/551/354
f 355/552/355 362/562/355 354/550/339
f 348/543/342 356/555/364 355/553/356
f 349/554/344 357/566/366 356/555/357
f 350/546/346 358/558/358 357/556/358
f 351/557/348 359/569/359 358/558/359
f 360/559/360 359/572/360 351/560/349
f 361/561/361 360/559/372 352/547/351
f 362/562/362 361/575/374 353/563/353
f 363/564/363 370/574/363 362/562/355
f 356/555/364 364/567/365 363/565/365
f 357/566/366 365/823/367 364/567/367
f 358/558/358 366/570/368 365/568/368
f 359/569/359 367/824/369 366/570/369
f 368/571/370 367/825/370 359/572/360
f 369/573/371 368/571/371 360/559/372
f 370/574/373 369/826/375 361/575/374
f 387/592/202 395/614/225 402/593/203
f 396/595/205 395/617/228 387/596/206
f 397/598/208 396/595/230 388/597/209
f 398/600/211 397/620/232 389/601/212
f 399/603/214 398/622/234 390/604/215
f 392/606/216 400/610/235 399/607/217
f 393/609/219 401/624/237 400/610/220
f 394/611/222 402/626/239 401/612/223
f 395/614/225 403/628/241 410/615/226
f 404/616/227 403/631/227 395/617/228
f 405/618/229 404/616/229 396/595/230
f 406/619/231 405/634/231 397/620/232
f 407/621/233 406/636/233 398/622/234
f 400/610/235 408/625/236 407/623/236
f 401/624/237 409/638/238 408/625/238
f 402/626/239 410/640/240 409/627/240
f 403/628/241 411/642/250 418/629/242
f 412/630/243 411/645/253 403/631/227
f 413/632/244 412/630/255 404/616/229
f 414/633/245 413/648/257 405/634/231
f 415/635/246 414/650/259 406/636/233
f 408/625/236 416/639/260 415/637/247
f 409/638/238 417/652/262 416/639/248
f 410/640/240 418/654/264 417/641/249
f 411/642/250 419/827/266 426/643/251
f 420/644/252 419/660/269 411/645/253
f 421/646/254 420/644/271 412/630/255
f 422/647/256 421/663/273 413/648/257
f 423/649/258 422/828/275 414/650/259
f 416/639/260 424/653/276 423/651/261
f 417/652/262 425/667/278 424/653/263
f 418/654/264 426/658/280 425/655/265
f 419/656/266 427/671/283 434/657/267
f 428/659/268 427/673/285 419/660/269
f 429/661/270 428/659/287 420/644/271
f 430/662/272 429/676/289 421/663/273
f 431/664/274 430/662/291 422/647/275
f 424/653/276 432/668/293 431/666/277
f 425/667/278 433/680/295 432/668/279
f 426/658/280 434/657/297 433/669/281
f 435/670/282 442/681/282 434/657/267
f 428/659/268 436/674/284 435/672/284
f 429/661/270 437/685/301 436/674/286
f 430/662/272 438/677/288 437/675/288
f 431/664/274 439/688/290 438/677/290
f 440/678/292 439/690/305 431/666/277
f 441/679/294 440/678/294 432/668/279
f 442/681/296 441/693/308 433/669/281
f 435/670/282 443/695/310 450/682/298
f 444/683/299 443/697/312 435/672/284
f 445/684/300 444/683/300 436/674/286
f 446/686/302 445/700/315 437/675/288
f 447/687/303 446/686/317 438/677/290
f 440/678/292 448/691/304 447/689/304
f 441/679/294 449/704/320 448/691/306
f 442/681/296 450/682/322 449/692/307
f 451/694/309 458/705/324 450/682/298
f 444/683/299 452/698/325 451/696/311
f 445/684/300 453/708/327 452/698/313
f 446/686/302 454/701/329 453/699/314
f 447/687/303 455/711/331 454/701/316
f 456/702/318 455/714/334 447/689/304
f 457/703/319 456/702/336 448/691/306
f 458/705/321 457/717/338 449/692/307
f 459/706/323 466/716/340 458/705/324
f 452/698/325 460/709/341 459/707/326
f 453/708/327 461/720/343 460/709/328
f 454/701/329 462/712/345 461/710/330
f 455/711/331 463/723/347 462/712/332
f 464/713/333 463/726/350 455/714/334
f 465/715/335 464/713/352 456/702/336
f 466/716/337 465/729/354 457/717/338
f 467/718/339 474/728/339 466/716/340
f 460/709/341 468/721/342 467/719/342
f 461/720/343 469/732/344 468/721/344
f 462/712/345 470/724/346 469/722/346
f 463/723/347 471/735/348 470/724/348
f 472/725/349 471/738/349 463/726/350
f 473/727/351 472/725/351 464/713/352
f 474/728/353 473/741/353 465/729/354
f 475/730/355 482/740/355 474/728/339
f 468/721/342 476/733/364 475/731/356
f 469/732/344 477/744/366 476/733/357
f 470/724/346 478/736/358 477/734/358
f 471/735/348 479/747/359 478/736/359
f 480/737/360 479/750/360 471/738/349
f 481/739/361 480/737/372 472/725/351
f 482/740/362 481/753/374 473/741/353
f 483/742/363 490/752/363 482/740/355
f 476/733/364 484/745/365 483/743/365
f 477/744/366 485/829/376 484/745/367
f 478/736/358 486/748/368 485/746/368
f 479/747/359 487/830/369 486/748/369
f 488/749/370 487/831/370 479/750/360
f 489/751/371 488/749/371 480/737/372
f 490/752/373 489/832/375 481/753/374
